<?xml version="1.0" encoding="utf-8"?>
<!-- Generator: Adobe Illustrator 16.0.0, SVG Export Plug-In . SVG Version: 6.00 Build 0)  -->
<!DOCTYPE svg PUBLIC "-//W3C//DTD SVG 1.1//EN" "http://www.w3.org/Graphics/SVG/1.1/DTD/svg11.dtd">
<svg version="1.1" id="Layer_1" xmlns="http://www.w3.org/2000/svg" xmlns:xlink="http://www.w3.org/1999/xlink" x="0px" y="0px"
	 width="83.649px" height="25.121px" viewBox="0 0 83.649 25.121" enable-background="new 0 0 83.649 25.121" xml:space="preserve">
<g>
	<path fill="#323D8C" d="M29.954,15.476c-1.082,0-1.961-0.406-1.961-1.961v-3.028c0-0.075,0.062-0.13,0.136-0.13h0.892
		c0.075,0,0.136,0.055,0.136,0.13v3.028c0,0.695,0.184,0.988,0.797,0.988s0.803-0.293,0.803-0.988v-3.028
		c0-0.075,0.062-0.13,0.137-0.13h0.885c0.075,0,0.143,0.055,0.143,0.13v3.028C31.921,15.07,31.036,15.476,29.954,15.476"/>
	<path fill="#323D8C" d="M35.21,15.375c-0.191,0.049-0.497,0.102-0.905,0.102c-0.96,0-1.587-0.611-1.587-1.721v-0.573
		c0-1.109,0.627-1.723,1.587-1.723c0.408,0,0.714,0.055,0.905,0.102c0.102,0.028,0.143,0.056,0.143,0.157v0.606
		c0,0.067-0.061,0.115-0.129,0.115H35.21c-0.252-0.027-0.442-0.048-0.83-0.048c-0.307,0-0.559,0.185-0.559,0.79v0.573
		c0,0.605,0.252,0.789,0.559,0.789c0.388,0,0.578-0.021,0.83-0.047h0.014c0.068,0,0.129,0.047,0.129,0.115v0.605
		C35.353,15.322,35.312,15.347,35.21,15.375 M35.673,10.228l-0.606,0.797c-0.061,0.074-0.088,0.103-0.184,0.103h-1.089
		c-0.095,0-0.123-0.021-0.184-0.103l-0.599-0.797c-0.02-0.026-0.027-0.048-0.027-0.067c0-0.028,0.02-0.048,0.061-0.048h0.701
		c0.089,0,0.109,0.02,0.164,0.081l0.428,0.478l0.436-0.478c0.055-0.062,0.075-0.081,0.164-0.081h0.701
		c0.041,0,0.061,0.02,0.061,0.048C35.7,10.18,35.693,10.201,35.673,10.228"/>
	<path fill="#323D8C" d="M37.103,11.072h-0.885c-0.075,0-0.136-0.062-0.136-0.137v-0.633c0-0.075,0.061-0.136,0.136-0.136h0.885
		c0.075,0,0.136,0.061,0.136,0.136v0.633C37.239,11.011,37.178,11.072,37.103,11.072 M37.076,15.416h-0.831
		c-0.075,0-0.136-0.061-0.136-0.135v-3.629c0-0.075,0.061-0.137,0.136-0.137h0.831c0.075,0,0.136,0.062,0.136,0.137v3.629
		C37.212,15.355,37.151,15.416,37.076,15.416"/>
	<path fill="#323D8C" d="M41.298,15.416h-0.824c-0.075,0-0.136-0.068-0.136-0.143v-2.267c0-0.477-0.088-0.633-0.504-0.633
		c-0.197,0-0.408,0.095-0.64,0.217v2.683c0,0.074-0.061,0.143-0.136,0.143h-0.824c-0.075,0-0.143-0.068-0.143-0.143v-3.622
		c0-0.075,0.062-0.137,0.137-0.137h0.762c0.075,0,0.136,0.062,0.136,0.137v0.162c0.375-0.265,0.674-0.354,1.11-0.354
		c0.987,0,1.205,0.688,1.205,1.546v2.267C41.44,15.347,41.373,15.416,41.298,15.416"/>
	<path fill="#323D8C" d="M45.655,11.658L44.39,13.38l1.259,1.893c0.015,0.014,0.015,0.033,0.015,0.055
		c0,0.047-0.035,0.088-0.09,0.088h-1.027c-0.076,0-0.115-0.014-0.17-0.096l-0.98-1.6v1.553c0,0.074-0.063,0.143-0.137,0.143h-0.823
		c-0.075,0-0.143-0.068-0.143-0.143V10.33c0-0.075,0.068-0.137,0.143-0.137h0.823c0.074,0,0.137,0.062,0.137,0.137v2.846
		l1.035-1.559c0.054-0.082,0.121-0.103,0.177-0.103h0.974c0.061,0,0.102,0.034,0.102,0.075
		C45.683,11.609,45.677,11.631,45.655,11.658"/>
	<path fill="#323D8C" d="M47.685,15.478c-1.103,0-1.709-0.689-1.709-1.771V13.23c0-1.083,0.606-1.771,1.709-1.771
		c1.104,0,1.702,0.688,1.702,1.771v0.476C49.387,14.789,48.788,15.478,47.685,15.478 M48.291,13.23c0-0.551-0.212-0.831-0.606-0.831
		s-0.613,0.28-0.613,0.831v0.476c0,0.553,0.219,0.838,0.613,0.838s0.606-0.285,0.606-0.838V13.23z"/>
	<path fill="#323D8C" d="M53.418,11.671l-0.858,3.092c-0.17,0.605-0.584,0.715-0.986,0.715s-0.811-0.109-0.981-0.715l-0.851-3.092
		c-0.006-0.014-0.006-0.026-0.006-0.041c0-0.067,0.047-0.115,0.108-0.115h0.897c0.068,0,0.123,0.061,0.144,0.143l0.586,2.668
		c0.021,0.104,0.054,0.145,0.103,0.145c0.048,0,0.088-0.041,0.108-0.145l0.585-2.668c0.021-0.082,0.075-0.143,0.143-0.143h0.9
		c0.061,0,0.115,0.048,0.115,0.115C53.425,11.645,53.425,11.657,53.418,11.671"/>
	<path fill="#323D8C" d="M55.032,11.072h-0.886c-0.075,0-0.136-0.062-0.136-0.137v-0.633c0-0.075,0.061-0.136,0.136-0.136h0.886
		c0.074,0,0.135,0.061,0.135,0.136v0.633C55.167,11.011,55.106,11.072,55.032,11.072 M55.005,15.416h-0.831
		c-0.075,0-0.136-0.061-0.136-0.135v-3.629c0-0.075,0.061-0.137,0.136-0.137h0.831c0.074,0,0.136,0.062,0.136,0.137v3.629
		C55.141,15.355,55.079,15.416,55.005,15.416"/>
	<path fill="#323D8C" d="M58.137,15.423c-0.204,0.033-0.34,0.053-0.538,0.053c-0.749,0-1.145-0.197-1.145-1.164v-1.973l-0.543-0.089
		c-0.075-0.014-0.144-0.067-0.144-0.143v-0.45c0-0.074,0.068-0.143,0.144-0.143h0.543v-0.558c0-0.075,0.062-0.123,0.137-0.137
		l0.831-0.143h0.021c0.068,0,0.123,0.047,0.123,0.116v0.721h0.558c0.075,0,0.137,0.061,0.137,0.136v0.552
		c0,0.075-0.062,0.137-0.137,0.137h-0.558v1.981c0,0.273,0.021,0.32,0.225,0.32h0.333c0.089,0,0.143,0.041,0.143,0.115v0.531
		C58.266,15.355,58.219,15.408,58.137,15.423"/>
	<path fill="#323D8C" d="M59.94,11.072h-0.885c-0.074,0-0.136-0.062-0.136-0.137v-0.633c0-0.075,0.062-0.136,0.136-0.136h0.885
		c0.076,0,0.137,0.061,0.137,0.136v0.633C60.077,11.011,60.017,11.072,59.94,11.072 M59.914,15.416h-0.831
		c-0.074,0-0.136-0.061-0.136-0.135v-3.629c0-0.075,0.062-0.137,0.136-0.137h0.831c0.075,0,0.136,0.062,0.136,0.137v3.629
		C60.05,15.355,59.989,15.416,59.914,15.416"/>
	<path fill="#323D8C" d="M63.707,15.416h-0.831c-0.075,0-0.143-0.068-0.143-0.143V10.33c0-0.075,0.067-0.136,0.143-0.136h0.831
		c0.075,0,0.129,0.061,0.129,0.136v4.943C63.836,15.347,63.782,15.416,63.707,15.416"/>
	<path fill="#323D8C" d="M64.741,16.798c-0.176,0-0.347-0.014-0.543-0.049c-0.09-0.012-0.138-0.061-0.138-0.135v-0.539
		c0-0.074,0.056-0.121,0.144-0.121h0.3c0.19,0,0.211-0.09,0.211-0.32v-3.976c0-0.075,0.054-0.143,0.129-0.143h0.845
		c0.074,0,0.129,0.067,0.129,0.143v3.976C65.817,16.539,65.403,16.798,64.741,16.798 M65.702,11.072h-0.879
		c-0.074,0-0.135-0.062-0.135-0.136v-0.634c0-0.074,0.061-0.137,0.135-0.137h0.879c0.074,0,0.143,0.063,0.143,0.137v0.634
		C65.845,11.011,65.776,11.072,65.702,11.072"/>
	<path fill="#323D8C" d="M69.909,15.416h-0.763c-0.073,0-0.136-0.061-0.136-0.135v-0.164c-0.374,0.266-0.674,0.354-1.11,0.354
		c-0.987,0-1.204-0.688-1.204-1.545v-2.267c0-0.075,0.068-0.144,0.144-0.144h0.823c0.074,0,0.136,0.068,0.136,0.144v2.267
		c0,0.477,0.089,0.633,0.504,0.633c0.198,0,0.409-0.096,0.64-0.219v-2.681c0-0.075,0.061-0.144,0.137-0.144h0.823
		c0.075,0,0.144,0.068,0.144,0.144v3.623C70.046,15.355,69.984,15.416,69.909,15.416"/>
	<path fill="#323D8C" d="M73.935,15.3c-0.389,0.096-0.927,0.176-1.451,0.176c-1.103,0-1.709-0.639-1.709-1.742v-0.531
		c0-1.068,0.559-1.742,1.709-1.742c0.137,0,0.36,0.02,0.559,0.047V10.33c0-0.074,0.061-0.137,0.136-0.137h0.824
		c0.075,0,0.144,0.063,0.144,0.137v4.773C74.146,15.212,74.118,15.259,73.935,15.3 M73.042,12.406
		c-0.163-0.021-0.395-0.033-0.559-0.033c-0.483,0-0.605,0.354-0.605,0.83v0.531c0,0.484,0.122,0.838,0.605,0.838
		c0.225,0,0.43-0.021,0.559-0.041V12.406z"/>
	<path fill="#323D8C" d="M76.27,15.476c-0.374,0-0.892-0.053-1.239-0.148c-0.082-0.021-0.13-0.074-0.13-0.158v-0.551
		c0-0.068,0.048-0.129,0.13-0.129h0.027c0.367,0.047,0.939,0.096,1.158,0.096c0.326,0,0.4-0.088,0.4-0.266
		c0-0.104-0.061-0.178-0.252-0.285l-0.885-0.512c-0.381-0.219-0.605-0.565-0.605-1.007c0-0.688,0.455-1.056,1.396-1.056
		c0.538,0,0.864,0.068,1.212,0.157c0.081,0.02,0.129,0.075,0.129,0.156v0.552c0,0.082-0.048,0.129-0.115,0.129h-0.021
		c-0.198-0.027-0.783-0.088-1.13-0.088c-0.266,0-0.361,0.041-0.361,0.197c0,0.102,0.075,0.156,0.211,0.237l0.844,0.484
		c0.565,0.328,0.688,0.68,0.688,1.049C77.727,14.972,77.264,15.476,76.27,15.476"/>
	<path fill="#323D8C" d="M81.818,11.658l-1.266,1.722l1.259,1.893c0.014,0.014,0.014,0.033,0.014,0.055
		c0,0.047-0.033,0.088-0.088,0.088h-1.029c-0.074,0-0.115-0.014-0.17-0.096l-0.979-1.6v1.553c0,0.074-0.062,0.143-0.138,0.143
		h-0.822c-0.075,0-0.143-0.068-0.143-0.143V10.33c0-0.075,0.067-0.137,0.143-0.137h0.822c0.076,0,0.138,0.062,0.138,0.137v2.846
		l1.034-1.559c0.055-0.082,0.123-0.103,0.178-0.103h0.973c0.062,0,0.103,0.034,0.103,0.075
		C81.846,11.609,81.839,11.631,81.818,11.658"/>
	<path fill="#323D8C" d="M83.515,11.072h-0.886c-0.075,0-0.136-0.062-0.136-0.137v-0.633c0-0.075,0.061-0.136,0.136-0.136h0.886
		c0.074,0,0.135,0.061,0.135,0.136v0.633C83.649,11.011,83.589,11.072,83.515,11.072 M83.487,15.416h-0.831
		c-0.075,0-0.136-0.061-0.136-0.135v-3.629c0-0.075,0.061-0.137,0.136-0.137h0.831c0.074,0,0.136,0.062,0.136,0.137v3.629
		C83.623,15.355,83.562,15.416,83.487,15.416"/>
	<path fill="#323D8C" d="M29.654,23.8c-0.136,0-0.361-0.021-0.558-0.049v1.178c0,0.076-0.062,0.137-0.136,0.137h-0.824
		c-0.075,0-0.143-0.061-0.143-0.137v-4.771c0-0.109,0.027-0.158,0.211-0.199c0.388-0.094,0.926-0.176,1.45-0.176
		c1.103,0,1.709,0.641,1.709,1.742v0.531C31.363,23.125,30.805,23.8,29.654,23.8 M30.26,21.525c0-0.482-0.122-0.83-0.606-0.83
		c-0.225,0-0.429,0.014-0.558,0.033v2.125c0.163,0.02,0.395,0.041,0.558,0.041c0.484,0,0.606-0.361,0.606-0.838V21.525z"/>
	<path fill="#323D8C" d="M33.692,23.8c-1.103,0-1.709-0.689-1.709-1.771v-0.477c0-1.082,0.606-1.77,1.709-1.77
		s1.702,0.688,1.702,1.77v0.477C35.394,23.111,34.795,23.8,33.692,23.8 M34.298,21.552c0-0.551-0.211-0.83-0.606-0.83
		s-0.613,0.279-0.613,0.83v0.477c0,0.553,0.218,0.838,0.613,0.838s0.606-0.285,0.606-0.838V21.552z"/>
	<path fill="#323D8C" d="M38.118,23.746c-0.204,0.033-0.34,0.053-0.538,0.053c-0.749,0-1.144-0.197-1.144-1.164v-1.973l-0.544-0.09
		c-0.075-0.014-0.143-0.066-0.143-0.143V19.98c0-0.074,0.068-0.143,0.143-0.143h0.544v-0.559c0-0.074,0.062-0.123,0.136-0.137
		L37.402,19h0.02c0.069,0,0.123,0.047,0.123,0.117v0.721h0.558c0.075,0,0.137,0.061,0.137,0.135v0.553
		c0,0.074-0.062,0.137-0.137,0.137h-0.558v1.98c0,0.273,0.021,0.32,0.225,0.32h0.333c0.089,0,0.143,0.041,0.143,0.115v0.531
		C38.247,23.677,38.2,23.73,38.118,23.746"/>
	<path fill="#323D8C" d="M42.06,22.132h-2.172v0.012c0,0.389,0.163,0.744,0.701,0.744c0.429,0,1.035-0.035,1.307-0.063h0.021
		c0.075,0,0.129,0.033,0.129,0.109v0.518c0,0.109-0.027,0.156-0.143,0.184C41.467,23.744,41.1,23.8,40.507,23.8
		c-0.823,0-1.709-0.438-1.709-1.75v-0.477c0-1.096,0.641-1.791,1.723-1.791c1.117,0,1.682,0.764,1.682,1.791v0.395
		C42.203,22.07,42.148,22.132,42.06,22.132 M41.127,21.423c0-0.504-0.232-0.756-0.613-0.756c-0.374,0-0.626,0.26-0.626,0.756v0.027
		h1.239V21.423z"/>
	<path fill="#323D8C" d="M46.159,23.738h-0.824c-0.074,0-0.136-0.068-0.136-0.143v-2.268c0-0.477-0.088-0.633-0.504-0.633
		c-0.197,0-0.408,0.096-0.64,0.217v2.684c0,0.074-0.062,0.143-0.137,0.143h-0.824c-0.074,0-0.143-0.068-0.143-0.143v-3.621
		c0-0.076,0.063-0.137,0.137-0.137h0.762c0.076,0,0.137,0.061,0.137,0.137v0.162c0.375-0.266,0.674-0.354,1.109-0.354
		c0.987,0,1.205,0.688,1.205,1.545v2.268C46.302,23.669,46.234,23.738,46.159,23.738"/>
	<path fill="#323D8C" d="M49.543,23.697c-0.19,0.049-0.497,0.104-0.905,0.104c-0.959,0-1.586-0.613-1.586-1.723v-0.572
		c0-1.109,0.627-1.723,1.586-1.723c0.408,0,0.715,0.055,0.905,0.102c0.103,0.027,0.144,0.055,0.144,0.156v0.607
		c0,0.068-0.062,0.115-0.129,0.115h-0.015c-0.252-0.027-0.442-0.047-0.831-0.047c-0.306,0-0.558,0.184-0.558,0.789v0.572
		c0,0.605,0.252,0.789,0.558,0.789c0.389,0,0.579-0.02,0.831-0.047h0.015c0.067,0,0.129,0.047,0.129,0.115v0.605
		C49.687,23.644,49.646,23.669,49.543,23.697"/>
	<path fill="#323D8C" d="M51.437,19.394h-0.885c-0.076,0-0.137-0.061-0.137-0.135v-0.635c0-0.074,0.061-0.135,0.137-0.135h0.885
		c0.074,0,0.136,0.061,0.136,0.135v0.635C51.572,19.333,51.511,19.394,51.437,19.394 M51.409,23.738h-0.831
		c-0.075,0-0.136-0.061-0.136-0.135v-3.629c0-0.076,0.061-0.137,0.136-0.137h0.831c0.075,0,0.137,0.061,0.137,0.137v3.629
		C51.546,23.677,51.484,23.738,51.409,23.738"/>
	<path fill="#323D8C" d="M52.478,25.121c-0.176,0-0.346-0.014-0.545-0.049c-0.088-0.014-0.135-0.061-0.135-0.135v-0.539
		c0-0.074,0.055-0.121,0.143-0.121h0.3c0.19,0,0.211-0.09,0.211-0.32V19.98c0-0.074,0.054-0.143,0.129-0.143h0.845
		c0.074,0,0.129,0.068,0.129,0.143v3.977C53.554,24.861,53.14,25.121,52.478,25.121 M53.438,19.394H52.56
		c-0.074,0-0.135-0.061-0.135-0.135v-0.633c0-0.076,0.061-0.139,0.135-0.139h0.879c0.074,0,0.143,0.063,0.143,0.139v0.633
		C53.581,19.333,53.513,19.394,53.438,19.394"/>
	<path fill="#323D8C" d="M57.306,23.738h-0.762c-0.076,0-0.137-0.061-0.137-0.135v-0.109c-0.266,0.189-0.538,0.305-0.947,0.305
		c-0.592,0-1.164-0.285-1.164-1.17v-0.061c0-0.797,0.512-1.152,1.676-1.152h0.367v-0.244c0-0.389-0.19-0.471-0.51-0.471
		c-0.437,0-0.92,0.029-1.131,0.049h-0.033c-0.068,0-0.123-0.035-0.123-0.123v-0.551c0-0.076,0.047-0.129,0.129-0.15
		c0.252-0.061,0.729-0.143,1.178-0.143c0.98,0,1.593,0.395,1.593,1.389v2.432C57.441,23.677,57.38,23.738,57.306,23.738
		 M56.359,22.07h-0.388c-0.478,0-0.6,0.164-0.6,0.498v0.061c0,0.285,0.144,0.34,0.43,0.34c0.203,0,0.395-0.066,0.558-0.148V22.07z"
		/>
	<path fill="#323D8C" d="M59.267,23.738h-0.83c-0.075,0-0.144-0.068-0.144-0.143v-4.943c0-0.074,0.068-0.135,0.144-0.135h0.83
		c0.076,0,0.129,0.061,0.129,0.135v4.943C59.396,23.669,59.343,23.738,59.267,23.738"/>
	<path fill="#323D8C" d="M61.269,19.394h-0.885c-0.075,0-0.137-0.061-0.137-0.135v-0.635c0-0.074,0.062-0.135,0.137-0.135h0.885
		c0.075,0,0.137,0.061,0.137,0.135v0.635C61.405,19.333,61.344,19.394,61.269,19.394 M61.241,23.738h-0.83
		c-0.076,0-0.137-0.061-0.137-0.135v-3.629c0-0.076,0.061-0.137,0.137-0.137h0.83c0.075,0,0.137,0.061,0.137,0.137v3.629
		C61.378,23.677,61.316,23.738,61.241,23.738"/>
	<path fill="#323D8C" d="M31.852,7.112C31.493,7.15,30.566,7.16,30.008,7.16c-1.324,0-2.015-0.501-2.015-1.76V1.76
		c0-1.258,0.691-1.76,2.015-1.76c0.558,0,1.447,0.019,1.844,0.057c0.057,0.009,0.095,0.076,0.095,0.133v0.473
		c0,0.066-0.038,0.113-0.105,0.113h-1.825c-1.002,0-1.163,0.266-1.163,0.984v1.314h2.903c0.104,0,0.19,0.085,0.19,0.188v0.36
		c0,0.104-0.086,0.188-0.19,0.188h-2.903V5.4c0,0.72,0.161,0.984,1.163,0.984h1.825c0.067,0,0.105,0.047,0.105,0.113V6.98
		C31.947,7.037,31.909,7.103,31.852,7.112"/>
	<path fill="#323D8C" d="M34.859,7.16c-0.662,0-1.154-0.066-1.57-0.132c-0.161-0.029-0.18-0.067-0.18-0.171V6.479
		c0-0.104,0.076-0.15,0.161-0.15h0.028c0.435,0.038,1.126,0.056,1.561,0.056c1.135,0,1.438-0.454,1.438-1.116
		c0-0.473-0.275-0.736-1.135-1.267l-0.918-0.558c-0.87-0.53-1.305-1.013-1.305-1.77C32.939,0.53,33.762,0,35.199,0
		c0.558,0,1.287,0.057,1.646,0.114c0.095,0.019,0.161,0.065,0.161,0.161v0.405c0,0.096-0.066,0.151-0.161,0.151h-0.019
		c-0.416-0.028-1.078-0.056-1.627-0.056c-0.974,0-1.39,0.208-1.39,0.897c0,0.445,0.312,0.71,1.031,1.145l0.87,0.521
		c1.097,0.653,1.485,1.173,1.485,1.929C37.195,6.176,36.722,7.16,34.859,7.16"/>
	<path fill="#323D8C" d="M41.123,3.812h-1.857v3.093c0,0.104-0.085,0.189-0.189,0.189h-0.482c-0.105,0-0.189-0.085-0.189-0.189V1.76
		c0-1.258,0.69-1.76,2.014-1.76c0.558,0,1.447,0.019,1.844,0.057c0.057,0.01,0.095,0.076,0.095,0.132v0.474
		c0,0.066-0.038,0.113-0.104,0.113h-1.826c-1.002,0-1.163,0.266-1.163,0.984v1.314h1.857c0.104,0,0.189,0.085,0.189,0.189v0.359
		C41.312,3.727,41.227,3.812,41.123,3.812"/>
	<path fill="#E22227" d="M46.432,3.807h-1.744v1.734c0,0.11-0.05,0.201-0.162,0.201H44.12c-0.111,0-0.162-0.091-0.162-0.201V3.807
		h-1.733c-0.111,0-0.203-0.051-0.203-0.162V3.238c0-0.11,0.092-0.162,0.203-0.162h1.733V1.334c0-0.112,0.051-0.203,0.162-0.203
		h0.405c0.112,0,0.162,0.091,0.162,0.203v1.742h1.744c0.112,0,0.203,0.052,0.203,0.162v0.406
		C46.635,3.756,46.544,3.807,46.432,3.807"/>
	
		<rect x="8.903" y="11.177" transform="matrix(-0.707 0.7072 -0.7072 -0.707 29.1838 15.3009)" fill-rule="evenodd" clip-rule="evenodd" fill="#E22227" width="5.04" height="5.037"/>
	<polygon fill-rule="evenodd" clip-rule="evenodd" fill="#FFFFFF" points="8.542,13.691 11.426,10.807 14.294,13.675 11.448,11.549 
			"/>
	<path fill-rule="evenodd" clip-rule="evenodd" fill="#A5CE3A" d="M8.75,5.68C7.797,4.727,7.258,3.517,7.126,2.271
		C6.748,2.45,6.392,2.693,6.078,3.007C4.661,4.424,3.864,6.348,3.864,8.352s0.797,3.927,2.214,5.343l5.344-5.343L8.75,5.68z"/>
	<path fill-rule="evenodd" clip-rule="evenodd" fill="#A5CE3A" d="M3.408,16.369C2.456,17.32,1.246,17.861,0,17.992
		c0.181,0.379,0.423,0.734,0.737,1.047c1.416,1.418,3.339,2.213,5.342,2.213s3.927-0.795,5.343-2.213l-5.343-5.342L3.408,16.369z"/>
	<path fill-rule="evenodd" clip-rule="evenodd" fill="#A5CE3A" d="M14.095,21.712c0.953,0.953,1.492,2.162,1.624,3.408
		c0.378-0.18,0.735-0.424,1.048-0.736c1.417-1.418,2.214-3.34,2.214-5.344c0-2.006-0.797-3.928-2.214-5.346l-5.344,5.346
		L14.095,21.712z"/>
	<path fill-rule="evenodd" clip-rule="evenodd" fill="#A5CE3A" d="M19.437,11.022c0.952-0.952,2.162-1.492,3.408-1.623
		c-0.181-0.379-0.423-0.735-0.737-1.048c-1.416-1.417-3.339-2.213-5.342-2.213c-2.004,0-3.927,0.796-5.343,2.213l5.343,5.341
		L19.437,11.022z"/>
	<path fill-rule="evenodd" clip-rule="evenodd" fill="#323D8C" d="M14.833,2.831c0,1.564-1.268,2.831-2.831,2.831
		S9.171,4.396,9.171,2.831C9.171,1.268,10.439,0,12.002,0S14.833,1.268,14.833,2.831"/>
</g>
</svg>
