<?xml version="1.0" encoding="utf-8"?>
<!-- Generator: Adobe Illustrator 16.0.0, SVG Export Plug-In . SVG Version: 6.00 Build 0)  -->
<!DOCTYPE svg PUBLIC "-//W3C//DTD SVG 1.1//EN" "http://www.w3.org/Graphics/SVG/1.1/DTD/svg11.dtd">
<svg version="1.1" id="Layer_1" xmlns="http://www.w3.org/2000/svg" xmlns:xlink="http://www.w3.org/1999/xlink" x="0px" y="0px"
	 width="101.144px" height="27.102px" viewBox="0 0 101.144 27.102" enable-background="new 0 0 101.144 27.102"
	 xml:space="preserve">
<rect x="0.895" y="0.775" fill="#FFFFFF" width="37.442" height="25.424"/>
<rect x="1.615" y="1.474" fill="#075CA9" width="36.002" height="24.001"/>
<polygon fill="#F5EC3F" points="18.849,6.702 19.608,6.148 20.367,6.702 20.078,5.806 20.851,5.251 19.899,5.251 19.608,4.345 
	19.317,5.252 18.366,5.251 19.138,5.806 "/>
<polygon fill="#F5EC3F" points="14.917,7.759 15.677,7.204 16.437,7.759 16.147,6.861 16.918,6.308 15.967,6.308 15.676,5.399 
	15.385,6.309 14.435,6.308 15.206,6.861 "/>
<polygon fill="#F5EC3F" points="12.8,8.282 12.509,9.191 11.559,9.19 12.329,9.745 12.04,10.641 12.8,10.087 13.561,10.641 
	13.271,9.745 14.042,9.19 13.091,9.19 "/>
<polygon fill="#F5EC3F" points="11.745,14.014 12.504,14.567 12.216,13.672 12.987,13.116 12.036,13.116 11.745,12.209 
	11.454,13.118 10.503,13.116 11.274,13.672 10.985,14.567 "/>
<polygon fill="#F5EC3F" points="13.091,17.055 12.8,16.147 12.509,17.057 11.559,17.055 12.329,17.61 12.04,18.506 12.8,17.952 
	13.561,18.506 13.271,17.61 14.042,17.055 "/>
<polygon fill="#F5EC3F" points="15.974,19.938 15.683,19.03 15.392,19.938 14.44,19.938 15.211,20.491 14.923,21.387 15.683,20.834 
	16.442,21.387 16.153,20.491 16.925,19.938 "/>
<polygon fill="#F5EC3F" points="19.899,20.981 19.608,20.073 19.317,20.983 18.367,20.981 19.138,21.536 18.85,22.432 
	19.608,21.877 20.369,22.432 20.08,21.536 20.851,20.981 "/>
<polygon fill="#F5EC3F" points="23.826,19.938 23.535,19.03 23.244,19.938 22.294,19.938 23.064,20.491 22.776,21.387 
	23.535,20.834 24.295,21.387 24.006,20.491 24.777,19.938 "/>
<polygon fill="#F5EC3F" points="26.709,17.055 26.417,16.147 26.126,17.057 25.176,17.055 25.947,17.61 25.658,18.506 
	26.417,17.952 27.177,18.506 26.887,17.61 27.659,17.055 "/>
<polygon fill="#F5EC3F" points="28.704,13.106 27.753,13.106 27.461,12.198 27.171,13.107 26.22,13.106 26.99,13.66 26.703,14.557 
	27.461,14.002 28.221,14.557 27.932,13.66 "/>
<polygon fill="#F5EC3F" points="25.658,10.63 26.418,10.075 27.177,10.63 26.888,9.732 27.659,9.18 26.709,9.18 26.418,8.271 
	26.126,9.181 25.176,9.18 25.948,9.732 "/>
<polygon fill="#F5EC3F" points="23.547,5.4 23.256,6.309 22.305,6.307 23.075,6.863 22.786,7.759 23.548,7.204 24.307,7.759 
	24.018,6.863 24.789,6.307 23.838,6.307 "/>
<g>
	<path fill="#075CA9" d="M42.5,8.67l1.161-0.112c0.069,0.389,0.211,0.675,0.425,0.857c0.213,0.183,0.501,0.274,0.864,0.274
		c0.384,0,0.673-0.081,0.868-0.244c0.194-0.162,0.292-0.353,0.292-0.57c0-0.14-0.041-0.258-0.123-0.356
		c-0.082-0.098-0.225-0.183-0.429-0.256c-0.14-0.048-0.458-0.134-0.955-0.258c-0.64-0.158-1.088-0.353-1.346-0.584
		c-0.362-0.325-0.544-0.721-0.544-1.188c0-0.301,0.085-0.582,0.256-0.844c0.171-0.263,0.416-0.462,0.737-0.599
		s0.708-0.205,1.162-0.205c0.741,0,1.3,0.162,1.674,0.487c0.375,0.325,0.572,0.759,0.591,1.301l-1.192,0.053
		c-0.052-0.304-0.161-0.521-0.329-0.654c-0.168-0.134-0.419-0.2-0.755-0.2c-0.347,0-0.618,0.071-0.814,0.214
		c-0.126,0.092-0.188,0.214-0.188,0.366c0,0.141,0.059,0.26,0.177,0.359c0.15,0.126,0.516,0.258,1.096,0.395s1.01,0.278,1.287,0.425
		c0.278,0.146,0.496,0.347,0.653,0.601s0.235,0.567,0.235,0.94c0,0.339-0.094,0.655-0.282,0.951
		c-0.188,0.296-0.454,0.515-0.798,0.659c-0.344,0.144-0.771,0.215-1.285,0.215c-0.746,0-1.32-0.172-1.72-0.518
		C42.817,9.834,42.578,9.331,42.5,8.67z"/>
	<path fill="#075CA9" d="M51.114,10.592V9.951c-0.155,0.229-0.36,0.408-0.614,0.54s-0.521,0.197-0.804,0.197
		c-0.287,0-0.545-0.063-0.773-0.189s-0.394-0.304-0.495-0.531c-0.103-0.229-0.153-0.544-0.153-0.947V6.313h1.132v1.966
		c0,0.602,0.021,0.97,0.063,1.105s0.117,0.243,0.228,0.322c0.11,0.08,0.25,0.119,0.419,0.119c0.193,0,0.367-0.053,0.52-0.159
		c0.153-0.105,0.258-0.237,0.314-0.395s0.085-0.542,0.085-1.154V6.313h1.132v4.278H51.114z"/>
	<path fill="#075CA9" d="M52.871,6.313H53.5V5.99c0-0.359,0.038-0.628,0.114-0.806c0.076-0.177,0.218-0.321,0.423-0.433
		c0.206-0.111,0.466-0.167,0.78-0.167c0.322,0,0.638,0.048,0.946,0.145L55.61,5.52c-0.18-0.043-0.353-0.064-0.52-0.064
		c-0.164,0-0.281,0.038-0.353,0.114c-0.071,0.077-0.106,0.224-0.106,0.441v0.303h0.846v0.89h-0.846v3.389H53.5V7.203h-0.629V6.313z
		 M56.05,5.732V4.686h1.132v1.047H56.05z M56.05,10.592V6.313h1.132v4.278H56.05z"/>
	<path fill="#075CA9" d="M62.271,10.592h-1.132V8.408c0-0.462-0.024-0.761-0.073-0.896c-0.048-0.136-0.127-0.241-0.235-0.316
		s-0.24-0.112-0.393-0.112c-0.196,0-0.372,0.054-0.528,0.161c-0.155,0.107-0.263,0.249-0.32,0.427
		c-0.058,0.177-0.086,0.505-0.086,0.983v1.938H58.37V6.313h1.052v0.628c0.373-0.483,0.844-0.726,1.41-0.726
		c0.25,0,0.479,0.046,0.685,0.136c0.207,0.09,0.363,0.204,0.47,0.344s0.18,0.299,0.222,0.476c0.042,0.178,0.063,0.432,0.063,0.762
		V10.592z"/>
	<path fill="#075CA9" d="M64.265,7.618l-1.027-0.186c0.115-0.413,0.314-0.72,0.596-0.918c0.282-0.199,0.701-0.299,1.258-0.299
		c0.505,0,0.881,0.061,1.128,0.18c0.247,0.12,0.421,0.271,0.521,0.455c0.101,0.185,0.151,0.522,0.151,1.014l-0.013,1.321
		c0,0.376,0.019,0.653,0.055,0.832s0.104,0.37,0.203,0.574h-1.119c-0.03-0.075-0.066-0.187-0.109-0.334
		c-0.019-0.067-0.032-0.112-0.04-0.134c-0.193,0.188-0.4,0.329-0.62,0.424c-0.221,0.094-0.456,0.141-0.705,0.141
		c-0.441,0-0.788-0.119-1.042-0.358S63.12,9.789,63.12,9.424c0-0.242,0.058-0.458,0.174-0.647c0.115-0.189,0.277-0.334,0.485-0.435
		s0.508-0.188,0.9-0.264c0.529-0.1,0.896-0.192,1.1-0.278V7.687c0-0.217-0.054-0.372-0.161-0.465s-0.311-0.139-0.608-0.139
		c-0.201,0-0.358,0.039-0.472,0.118C64.426,7.28,64.334,7.42,64.265,7.618z M65.779,8.537c-0.145,0.048-0.375,0.106-0.688,0.173
		c-0.314,0.067-0.521,0.133-0.617,0.197c-0.147,0.105-0.222,0.238-0.222,0.399c0,0.158,0.06,0.295,0.178,0.411
		c0.118,0.115,0.269,0.173,0.451,0.173c0.204,0,0.399-0.067,0.584-0.201c0.138-0.103,0.228-0.228,0.271-0.375
		c0.029-0.097,0.044-0.28,0.044-0.552V8.537z"/>
	<path fill="#075CA9" d="M71.9,10.592h-1.132V8.408c0-0.462-0.024-0.761-0.073-0.896c-0.048-0.136-0.127-0.241-0.235-0.316
		s-0.24-0.112-0.393-0.112c-0.196,0-0.372,0.054-0.528,0.161c-0.155,0.107-0.263,0.249-0.32,0.427
		c-0.058,0.177-0.086,0.505-0.086,0.983v1.938H68V6.313h1.052v0.628c0.373-0.483,0.844-0.726,1.41-0.726
		c0.25,0,0.479,0.046,0.685,0.136c0.207,0.09,0.363,0.204,0.47,0.344s0.18,0.299,0.222,0.476C71.88,7.349,71.9,7.603,71.9,7.933
		V10.592z"/>
	<path fill="#075CA9" d="M76.779,7.578l-1.116,0.201c-0.037-0.223-0.123-0.391-0.256-0.503c-0.133-0.113-0.306-0.17-0.518-0.17
		c-0.282,0-0.507,0.098-0.675,0.292c-0.168,0.195-0.252,0.521-0.252,0.978c0,0.508,0.085,0.866,0.256,1.075
		c0.171,0.21,0.399,0.314,0.687,0.314c0.215,0,0.392-0.061,0.528-0.183c0.137-0.123,0.233-0.333,0.29-0.631l1.112,0.189
		c-0.116,0.51-0.338,0.896-0.665,1.156c-0.328,0.261-0.767,0.391-1.317,0.391c-0.626,0-1.125-0.197-1.497-0.592
		c-0.372-0.396-0.558-0.941-0.558-1.641c0-0.706,0.187-1.256,0.56-1.649s0.879-0.591,1.515-0.591c0.521,0,0.936,0.112,1.243,0.337
		S76.645,7.119,76.779,7.578z"/>
	<path fill="#075CA9" d="M77.637,5.732V4.686h1.133v1.047H77.637z M77.637,10.592V6.313h1.133v4.278H77.637z"/>
	<path fill="#075CA9" d="M81.014,10.592h-1.132V6.313h1.052v0.607c0.18-0.287,0.342-0.477,0.485-0.567
		c0.144-0.092,0.307-0.138,0.489-0.138c0.258,0,0.507,0.071,0.745,0.214l-0.35,0.987c-0.191-0.124-0.368-0.186-0.532-0.186
		c-0.158,0-0.293,0.044-0.403,0.131c-0.109,0.088-0.196,0.245-0.26,0.474c-0.063,0.229-0.095,0.706-0.095,1.435V10.592z"/>
	<path fill="#075CA9" d="M83.987,7.618L82.96,7.433c0.115-0.413,0.314-0.72,0.596-0.918c0.282-0.199,0.701-0.299,1.258-0.299
		c0.505,0,0.881,0.061,1.128,0.18c0.247,0.12,0.421,0.271,0.521,0.455c0.101,0.185,0.151,0.522,0.151,1.014l-0.013,1.321
		c0,0.376,0.019,0.653,0.055,0.832s0.104,0.37,0.203,0.574H85.74c-0.03-0.075-0.066-0.187-0.109-0.334
		c-0.019-0.067-0.032-0.112-0.04-0.134c-0.193,0.188-0.4,0.329-0.62,0.424c-0.221,0.094-0.456,0.141-0.705,0.141
		c-0.441,0-0.788-0.119-1.042-0.358s-0.381-0.541-0.381-0.906c0-0.242,0.058-0.458,0.174-0.647c0.115-0.189,0.277-0.334,0.485-0.435
		s0.508-0.188,0.9-0.264c0.529-0.1,0.896-0.192,1.1-0.278V7.687c0-0.217-0.054-0.372-0.161-0.465s-0.311-0.139-0.608-0.139
		c-0.201,0-0.358,0.039-0.472,0.118C84.148,7.28,84.057,7.42,83.987,7.618z M85.502,8.537c-0.145,0.048-0.375,0.106-0.688,0.173
		c-0.314,0.067-0.521,0.133-0.617,0.197c-0.147,0.105-0.222,0.238-0.222,0.399c0,0.158,0.06,0.295,0.178,0.411
		c0.118,0.115,0.269,0.173,0.451,0.173c0.204,0,0.399-0.067,0.584-0.201c0.138-0.103,0.228-0.228,0.271-0.375
		c0.029-0.097,0.044-0.28,0.044-0.552V8.537z"/>
</g>
<g>
	<defs>
		<rect id="SVGID_1_" width="101.144" height="27.102"/>
	</defs>
	<clipPath id="SVGID_2_">
		<use xlink:href="#SVGID_1_"  overflow="visible"/>
	</clipPath>
	<g clip-path="url(#SVGID_2_)">
		<path fill="#075CA9" d="M42.803,20.493v-5.906h4.379v1h-3.187v1.309h2.965v0.996h-2.965v1.607h3.3v0.994H42.803z"/>
		<path fill="#075CA9" d="M51.114,20.493v-0.641c-0.155,0.229-0.36,0.408-0.614,0.541c-0.254,0.131-0.521,0.197-0.804,0.197
			c-0.287,0-0.545-0.064-0.773-0.189c-0.229-0.127-0.394-0.305-0.495-0.531c-0.103-0.229-0.153-0.545-0.153-0.947v-2.707h1.132
			v1.965c0,0.602,0.021,0.971,0.063,1.105c0.042,0.137,0.117,0.244,0.228,0.322c0.11,0.08,0.25,0.119,0.419,0.119
			c0.193,0,0.367-0.053,0.52-0.158c0.153-0.105,0.258-0.238,0.314-0.395c0.057-0.158,0.085-0.543,0.085-1.154v-1.805h1.132v4.277
			H51.114z"/>
		<path fill="#075CA9" d="M54.422,20.493H53.29v-4.277h1.052v0.607c0.18-0.287,0.342-0.477,0.485-0.568s0.307-0.137,0.489-0.137
			c0.258,0,0.507,0.07,0.745,0.213l-0.35,0.988c-0.191-0.125-0.368-0.186-0.532-0.186c-0.158,0-0.293,0.043-0.403,0.131
			c-0.109,0.088-0.196,0.244-0.26,0.473c-0.063,0.229-0.095,0.707-0.095,1.436V20.493z"/>
		<path fill="#075CA9" d="M56.287,18.293c0-0.377,0.093-0.74,0.278-1.092s0.448-0.621,0.788-0.807
			c0.339-0.186,0.719-0.277,1.138-0.277c0.647,0,1.178,0.211,1.592,0.631c0.413,0.42,0.62,0.951,0.62,1.594
			c0,0.646-0.209,1.184-0.626,1.609c-0.418,0.426-0.944,0.639-1.578,0.639c-0.392,0-0.766-0.09-1.122-0.266
			c-0.355-0.178-0.626-0.438-0.812-0.781C56.38,19.202,56.287,18.786,56.287,18.293z M57.448,18.354c0,0.424,0.101,0.75,0.302,0.975
			c0.201,0.227,0.45,0.338,0.745,0.338c0.296,0,0.543-0.111,0.743-0.338c0.2-0.225,0.301-0.553,0.301-0.982
			c0-0.42-0.101-0.742-0.301-0.967c-0.2-0.227-0.447-0.34-0.743-0.34c-0.295,0-0.544,0.113-0.745,0.34
			C57.549,17.604,57.448,17.93,57.448,18.354z"/>
		<path fill="#075CA9" d="M61.557,16.215h1.056v0.627c0.138-0.215,0.322-0.389,0.557-0.523c0.233-0.135,0.492-0.201,0.777-0.201
			c0.497,0,0.919,0.195,1.265,0.584c0.347,0.391,0.521,0.932,0.521,1.627c0,0.715-0.175,1.271-0.524,1.666
			c-0.349,0.396-0.771,0.596-1.269,0.596c-0.236,0-0.451-0.047-0.643-0.141c-0.192-0.096-0.395-0.256-0.606-0.484v2.156h-1.133
			V16.215z M62.677,18.282c0,0.48,0.096,0.836,0.286,1.064c0.191,0.23,0.424,0.346,0.697,0.346c0.264,0,0.482-0.105,0.657-0.316
			c0.174-0.211,0.262-0.557,0.262-1.037c0-0.449-0.09-0.783-0.271-1c-0.18-0.217-0.402-0.326-0.669-0.326
			c-0.276,0-0.506,0.107-0.688,0.32S62.677,17.862,62.677,18.282z"/>
		<path fill="#075CA9" d="M66.231,19.272l1.136-0.172c0.049,0.219,0.146,0.387,0.295,0.5c0.147,0.115,0.354,0.172,0.62,0.172
			c0.293,0,0.513-0.053,0.661-0.162c0.099-0.074,0.148-0.176,0.148-0.301c0-0.086-0.026-0.158-0.08-0.215
			c-0.057-0.053-0.183-0.102-0.379-0.148c-0.913-0.201-1.492-0.385-1.736-0.551c-0.339-0.232-0.508-0.553-0.508-0.965
			c0-0.369,0.146-0.682,0.439-0.934c0.292-0.252,0.746-0.379,1.361-0.379c0.586,0,1.021,0.096,1.306,0.285
			c0.284,0.191,0.48,0.475,0.588,0.848l-1.067,0.197c-0.046-0.168-0.133-0.295-0.26-0.383c-0.128-0.09-0.31-0.133-0.546-0.133
			c-0.299,0-0.512,0.041-0.641,0.125c-0.086,0.059-0.129,0.135-0.129,0.229c0,0.08,0.037,0.15,0.112,0.205
			c0.103,0.076,0.455,0.182,1.058,0.318c0.604,0.139,1.024,0.305,1.264,0.504c0.236,0.201,0.354,0.482,0.354,0.842
			c0,0.393-0.164,0.73-0.492,1.012c-0.327,0.283-0.813,0.424-1.454,0.424c-0.583,0-1.044-0.119-1.384-0.355
			S66.336,19.678,66.231,19.272z"/>
		<path fill="#075CA9" d="M71.179,20.493v-5.906h1.133v3.135l1.325-1.506h1.394l-1.462,1.563l1.567,2.715h-1.221l-1.076-1.922
			l-0.527,0.553v1.369H71.179z"/>
		<path fill="#075CA9" d="M76.654,17.52l-1.027-0.186c0.115-0.414,0.314-0.721,0.596-0.918c0.282-0.199,0.701-0.299,1.258-0.299
			c0.505,0,0.881,0.061,1.128,0.18s0.421,0.271,0.521,0.455s0.151,0.521,0.151,1.014l-0.013,1.32c0,0.377,0.019,0.654,0.055,0.832
			c0.036,0.18,0.104,0.371,0.203,0.574h-1.119c-0.03-0.074-0.066-0.186-0.109-0.334c-0.019-0.066-0.032-0.111-0.04-0.133
			c-0.193,0.188-0.4,0.328-0.62,0.424c-0.221,0.094-0.456,0.141-0.705,0.141c-0.441,0-0.788-0.119-1.042-0.359
			c-0.254-0.238-0.381-0.541-0.381-0.906c0-0.242,0.058-0.457,0.174-0.646c0.115-0.189,0.277-0.334,0.485-0.436
			c0.208-0.1,0.508-0.188,0.9-0.264c0.529-0.1,0.896-0.191,1.1-0.277v-0.113c0-0.217-0.054-0.373-0.161-0.465
			c-0.107-0.094-0.311-0.139-0.608-0.139c-0.201,0-0.358,0.039-0.472,0.117C76.815,17.182,76.724,17.321,76.654,17.52z
			 M78.169,18.438c-0.145,0.049-0.375,0.107-0.688,0.174c-0.314,0.066-0.521,0.133-0.617,0.197
			c-0.147,0.105-0.222,0.238-0.222,0.398c0,0.158,0.06,0.295,0.178,0.412c0.118,0.115,0.269,0.172,0.451,0.172
			c0.204,0,0.399-0.066,0.584-0.201c0.138-0.102,0.228-0.227,0.271-0.375c0.029-0.096,0.044-0.279,0.044-0.551V18.438z"/>
		<path fill="#075CA9" d="M85.506,20.493v-0.641c-0.155,0.229-0.36,0.408-0.614,0.541c-0.254,0.131-0.521,0.197-0.804,0.197
			c-0.287,0-0.545-0.064-0.773-0.189c-0.229-0.127-0.394-0.305-0.495-0.531c-0.103-0.229-0.153-0.545-0.153-0.947v-2.707h1.132
			v1.965c0,0.602,0.021,0.971,0.063,1.105c0.042,0.137,0.117,0.244,0.228,0.322c0.11,0.08,0.25,0.119,0.419,0.119
			c0.193,0,0.367-0.053,0.52-0.158c0.153-0.105,0.258-0.238,0.314-0.395c0.057-0.158,0.085-0.543,0.085-1.154v-1.805h1.132v4.277
			H85.506z"/>
		<path fill="#075CA9" d="M91.622,20.493H90.49v-2.184c0-0.461-0.024-0.76-0.073-0.896c-0.048-0.135-0.127-0.24-0.235-0.316
			c-0.108-0.074-0.24-0.111-0.393-0.111c-0.196,0-0.372,0.053-0.528,0.16c-0.155,0.107-0.263,0.25-0.32,0.428
			c-0.058,0.176-0.086,0.504-0.086,0.982v1.938h-1.133v-4.277h1.052v0.627c0.373-0.482,0.844-0.725,1.41-0.725
			c0.25,0,0.479,0.045,0.685,0.135c0.207,0.09,0.363,0.205,0.47,0.344c0.106,0.141,0.18,0.299,0.222,0.477s0.063,0.432,0.063,0.762
			V20.493z"/>
		<path fill="#075CA9" d="M92.77,15.633v-1.047h1.133v1.047H92.77z M92.77,20.493v-4.277h1.133v4.277H92.77z"/>
		<path fill="#075CA9" d="M96.171,16.215v4.145c0,0.545-0.035,0.93-0.106,1.154s-0.208,0.4-0.411,0.525
			c-0.203,0.127-0.461,0.189-0.775,0.189c-0.113,0-0.234-0.01-0.365-0.029c-0.13-0.02-0.271-0.051-0.421-0.092l0.197-0.967
			c0.054,0.012,0.104,0.02,0.151,0.027c0.047,0.006,0.091,0.01,0.131,0.01c0.115,0,0.21-0.025,0.284-0.074
			c0.074-0.051,0.123-0.109,0.147-0.18c0.023-0.07,0.036-0.279,0.036-0.629v-4.08H96.171z M95.039,15.633v-1.047h1.132v1.047H95.039
			z"/>
		<path fill="#075CA9" d="M98.201,17.52l-1.027-0.186c0.115-0.414,0.314-0.721,0.596-0.918c0.282-0.199,0.701-0.299,1.258-0.299
			c0.505,0,0.881,0.061,1.128,0.18s0.421,0.271,0.521,0.455s0.151,0.521,0.151,1.014l-0.013,1.32c0,0.377,0.019,0.654,0.055,0.832
			c0.036,0.18,0.104,0.371,0.203,0.574h-1.119c-0.03-0.074-0.066-0.186-0.109-0.334c-0.019-0.066-0.032-0.111-0.04-0.133
			c-0.193,0.188-0.4,0.328-0.62,0.424c-0.221,0.094-0.456,0.141-0.705,0.141c-0.441,0-0.788-0.119-1.042-0.359
			c-0.254-0.238-0.381-0.541-0.381-0.906c0-0.242,0.058-0.457,0.174-0.646c0.115-0.189,0.277-0.334,0.485-0.436
			c0.208-0.1,0.508-0.188,0.9-0.264c0.529-0.1,0.896-0.191,1.1-0.277v-0.113c0-0.217-0.054-0.373-0.161-0.465
			c-0.107-0.094-0.311-0.139-0.608-0.139c-0.201,0-0.358,0.039-0.472,0.117C98.362,17.182,98.271,17.321,98.201,17.52z
			 M99.716,18.438c-0.145,0.049-0.375,0.107-0.688,0.174c-0.314,0.066-0.521,0.133-0.617,0.197
			c-0.147,0.105-0.222,0.238-0.222,0.398c0,0.158,0.06,0.295,0.178,0.412c0.118,0.115,0.269,0.172,0.451,0.172
			c0.204,0,0.399-0.066,0.584-0.201c0.138-0.102,0.228-0.227,0.271-0.375c0.029-0.096,0.044-0.279,0.044-0.551V18.438z"/>
	</g>
</g>
</svg>
