<?xml version="1.0" encoding="utf-8"?>
<!-- Generator: Adobe Illustrator 16.0.0, SVG Export Plug-In . SVG Version: 6.00 Build 0)  -->
<!DOCTYPE svg PUBLIC "-//W3C//DTD SVG 1.1//EN" "http://www.w3.org/Graphics/SVG/1.1/DTD/svg11.dtd">
<svg version="1.1" id="Layer_1" xmlns="http://www.w3.org/2000/svg" xmlns:xlink="http://www.w3.org/1999/xlink" x="0px" y="0px"
	 width="154.15px" height="52.561px" viewBox="0 0 154.15 52.561" enable-background="new 0 0 154.15 52.561" xml:space="preserve">
<g>
	<path fill="#232323" d="M34.93,45.28c0.34-0.12,0.56-0.29,0.67-0.521l5.29-11.84c0.029-0.08,0.06-0.16,0.08-0.239
		c0.02-0.08,0.039-0.171,0.039-0.271c0-0.29-0.17-0.57-0.5-0.83c-0.329-0.25-0.699-0.46-1.119-0.61
		c-0.42-0.149-0.761-0.229-1.021-0.229c-0.28,0-0.51,0.05-0.72,0.17c-0.2,0.11-0.34,0.3-0.42,0.55L33.82,40.1l-3.44-8.7
		c-0.09-0.24-0.239-0.41-0.449-0.51c-0.21-0.101-0.44-0.15-0.69-0.15c-0.35,0-0.73,0.08-1.14,0.229
		c-0.41,0.15-0.761,0.351-1.051,0.591C26.74,31.82,26.6,32.09,26.6,32.38c0,0.09,0.01,0.181,0.05,0.29c0.03,0.11,0.06,0.19,0.1,0.25
		l5.26,11.84c0.091,0.23,0.32,0.4,0.671,0.521c0.35,0.12,0.729,0.17,1.14,0.17C34.21,45.45,34.57,45.4,34.93,45.28z"/>
	<path fill="#232323" d="M46.33,27.58c0.41-0.42,0.62-0.88,0.62-1.41c0-0.55-0.21-1.04-0.62-1.43c-0.41-0.4-0.92-0.6-1.53-0.6
		c-0.6,0-1.109,0.199-1.55,0.6c-0.43,0.39-0.64,0.88-0.64,1.43c0,0.53,0.21,0.99,0.64,1.41C43.69,28,44.2,28.2,44.8,28.2
		C45.41,28.2,45.92,28,46.33,27.58z M44.72,51.8c0.689-0.5,1.199-1.199,1.55-2.1c0.34-0.9,0.52-1.92,0.52-3.06V31.99
		c0-0.37-0.2-0.67-0.58-0.9c-0.399-0.229-0.88-0.35-1.439-0.35c-0.561,0-1.021,0.13-1.391,0.4c-0.37,0.27-0.55,0.619-0.55,1.05
		V46.55c0,0.471-0.03,0.891-0.08,1.271s-0.16,0.67-0.34,0.88c-0.17,0.2-0.439,0.31-0.81,0.31c-0.4,0-0.75,0.15-1.061,0.49
		c-0.29,0.311-0.45,0.76-0.45,1.33c0,0.43,0.15,0.82,0.42,1.19c0.28,0.359,0.82,0.54,1.65,0.54C43.18,52.56,44.03,52.3,44.72,51.8z"
		/>
	<path fill="#232323" d="M53.41,35.65c0-0.38,0.12-0.71,0.38-0.99s0.58-0.5,1-0.65c0.41-0.149,0.851-0.229,1.32-0.229
		c0.49,0,0.939,0.08,1.35,0.24s0.74,0.39,0.99,0.67c0.24,0.29,0.36,0.62,0.36,0.979c0,0.261-0.07,0.44-0.2,0.521
		c-0.13,0.09-0.37,0.13-0.72,0.13h-4.48V35.65z M59.75,45.04c0.811-0.27,1.431-0.6,1.87-1c0.44-0.39,0.67-0.76,0.67-1.109
		c0-0.2-0.069-0.44-0.189-0.711c-0.13-0.27-0.301-0.51-0.53-0.71c-0.22-0.21-0.48-0.31-0.79-0.31c-0.29,0-0.6,0.09-0.93,0.28
		c-0.32,0.189-0.721,0.399-1.16,0.609c-0.45,0.221-1.01,0.32-1.681,0.32c-1.079,0-1.939-0.28-2.6-0.85c-0.68-0.561-1-1.301-1-2.221
		V38.86h6.24c0.46,0,0.92-0.04,1.359-0.13c0.44-0.09,0.801-0.311,1.091-0.67c0.29-0.37,0.43-0.971,0.43-1.811
		c0-1.1-0.3-2.05-0.89-2.87c-0.591-0.83-1.37-1.47-2.32-1.939c-0.95-0.46-2-0.7-3.15-0.7c-1.239,0-2.38,0.28-3.399,0.82
		c-1.011,0.56-1.82,1.29-2.42,2.199c-0.61,0.91-0.9,1.91-0.9,2.99v2.55c0,1.221,0.31,2.301,0.95,3.23c0.63,0.93,1.5,1.66,2.62,2.16
		c1.12,0.51,2.399,0.76,3.859,0.76C57.98,45.45,58.94,45.32,59.75,45.04z"/>
	<path fill="#232323" d="M70.37,28.02L73.53,26c0.25-0.149,0.41-0.31,0.51-0.51c0.09-0.19,0.141-0.41,0.141-0.66
		c0-0.28-0.08-0.55-0.24-0.81c-0.16-0.25-0.36-0.391-0.62-0.391c-0.11,0-0.23,0.051-0.38,0.13l-3.12,2.061l-3.17-2.061
		c-0.13-0.079-0.25-0.13-0.37-0.13c-0.25,0-0.46,0.141-0.62,0.391c-0.16,0.26-0.24,0.529-0.24,0.81c0,0.25,0.061,0.47,0.17,0.66
		c0.11,0.2,0.28,0.36,0.5,0.51l3.17,2.021c0.2,0.13,0.391,0.18,0.561,0.18C69.96,28.2,70.14,28.15,70.37,28.02z M73.8,44.26
		c0.98-0.79,1.46-1.829,1.46-3.149c0-0.891-0.17-1.601-0.52-2.141c-0.36-0.539-0.81-0.97-1.37-1.3c-0.56-0.33-1.149-0.569-1.78-0.75
		c-0.619-0.16-1.22-0.31-1.779-0.46c-0.561-0.13-1.021-0.3-1.37-0.5c-0.351-0.189-0.521-0.47-0.521-0.84
		c0-0.21,0.07-0.42,0.221-0.62c0.14-0.189,0.359-0.359,0.67-0.5c0.3-0.149,0.72-0.22,1.229-0.22c0.57,0,1.061,0.07,1.47,0.21
		c0.41,0.14,0.771,0.28,1.091,0.43c0.319,0.15,0.59,0.221,0.819,0.221c0.301,0,0.561-0.11,0.78-0.341
		c0.22-0.229,0.38-0.489,0.51-0.77c0.12-0.28,0.19-0.51,0.19-0.68c0-0.391-0.24-0.75-0.72-1.07c-0.471-0.32-1.08-0.57-1.82-0.76
		c-0.75-0.19-1.54-0.28-2.38-0.28c-1.38,0-2.46,0.229-3.26,0.67C65.92,31.86,65.34,32.42,65,33.09c-0.35,0.681-0.52,1.38-0.52,2.091
		c0,0.81,0.17,1.47,0.52,1.97c0.34,0.51,0.79,0.91,1.351,1.2c0.55,0.29,1.149,0.52,1.77,0.68c0.62,0.18,1.21,0.33,1.76,0.49
		c0.551,0.16,1.011,0.359,1.37,0.6c0.36,0.24,0.54,0.58,0.54,1.01c0,0.301-0.149,0.59-0.45,0.87c-0.3,0.271-0.909,0.41-1.819,0.41
		c-0.86,0-1.54-0.1-2.021-0.33c-0.479-0.21-0.88-0.43-1.2-0.649C65.98,41.2,65.69,41.09,65.4,41.09c-0.271,0-0.51,0.101-0.7,0.29
		c-0.189,0.2-0.34,0.431-0.45,0.69c-0.12,0.27-0.17,0.5-0.17,0.689c0,0.44,0.24,0.87,0.72,1.28c0.48,0.42,1.141,0.76,1.99,1.03
		c0.851,0.26,1.79,0.38,2.82,0.38C71.43,45.45,72.82,45.06,73.8,44.26z"/>
	<path fill="#232323" d="M84.46,44.95c0.58,0,1-0.19,1.28-0.56c0.28-0.36,0.42-0.78,0.42-1.24c0-0.42-0.14-0.83-0.42-1.2
		s-0.7-0.56-1.28-0.56H83.27c-0.641,0-1.08-0.11-1.33-0.351c-0.26-0.24-0.391-0.64-0.391-1.229v-6.53h3.631
		c0.319,0,0.569-0.15,0.75-0.47c0.17-0.311,0.26-0.66,0.26-1.061c0-0.39-0.09-0.729-0.26-1.05c-0.181-0.31-0.431-0.47-0.75-0.47
		H81.55V25.09c0-0.359-0.21-0.649-0.63-0.87C80.5,24,80.04,23.89,79.55,23.89c-0.449,0-0.89,0.109-1.319,0.329
		C77.8,24.44,77.58,24.74,77.58,25.1v14.88c0,1.72,0.48,2.979,1.46,3.77c0.98,0.8,2.38,1.2,4.23,1.2H84.46z"/>
	<path fill="#232323" d="M91.89,27.07c0.409-0.41,0.63-0.88,0.63-1.41c0-0.55-0.221-1.03-0.63-1.43
		c-0.431-0.4-0.931-0.601-1.521-0.601c-0.6,0-1.11,0.2-1.55,0.601c-0.43,0.399-0.64,0.88-0.64,1.43c0,0.53,0.21,1,0.64,1.41
		c0.439,0.42,0.95,0.62,1.55,0.62C90.96,27.69,91.46,27.49,91.89,27.07z M91.78,45.06c0.38-0.261,0.58-0.551,0.58-0.86V31.98
		c0-0.37-0.2-0.67-0.58-0.9c-0.4-0.22-0.87-0.34-1.41-0.34c-0.58,0-1.05,0.13-1.42,0.36c-0.37,0.25-0.55,0.569-0.55,0.97v12.12
		c0,0.31,0.18,0.6,0.55,0.87c0.37,0.27,0.84,0.39,1.42,0.39C90.91,45.45,91.38,45.33,91.78,45.06z"/>
	<path fill="#232323" d="M98.94,45.07c0.39-0.271,0.59-0.55,0.59-0.851V37.03c0-0.57,0.12-1.061,0.37-1.46
		c0.24-0.41,0.56-0.72,0.95-0.95c0.38-0.22,0.779-0.33,1.199-0.33c0.49,0,0.931,0.141,1.351,0.41c0.41,0.27,0.729,0.61,0.97,1.02
		c0.23,0.4,0.351,0.841,0.351,1.301v7.189c0,0.41,0.22,0.721,0.649,0.931s0.87,0.31,1.32,0.31c0.51,0,0.97-0.1,1.38-0.31
		c0.41-0.221,0.62-0.53,0.62-0.94v-7.25c0-1.15-0.25-2.18-0.73-3.12c-0.479-0.93-1.12-1.689-1.92-2.25
		c-0.8-0.56-1.68-0.84-2.64-0.84c-1.021,0-1.9,0.25-2.601,0.76c-0.699,0.51-1.21,1.08-1.51,1.7v-1.06c0-0.421-0.18-0.761-0.51-1.011
		c-0.34-0.26-0.76-0.39-1.24-0.39c-0.58,0-1.05,0.13-1.42,0.36c-0.37,0.25-0.55,0.569-0.55,0.97v12.12c0,0.31,0.18,0.6,0.55,0.87
		c0.37,0.27,0.84,0.39,1.42,0.39C98.08,45.45,98.55,45.33,98.94,45.07z"/>
	<path fill="#232323" d="M114.85,35.65c0-0.38,0.13-0.71,0.38-0.99c0.26-0.28,0.59-0.5,1-0.65c0.41-0.149,0.85-0.229,1.319-0.229
		c0.49,0,0.94,0.08,1.351,0.24s0.74,0.39,0.99,0.67c0.239,0.29,0.369,0.62,0.369,0.979c0,0.261-0.079,0.44-0.199,0.521
		c-0.141,0.09-0.38,0.13-0.721,0.13h-4.489V35.65z M121.19,45.04c0.81-0.27,1.43-0.6,1.87-1c0.439-0.39,0.67-0.76,0.67-1.109
		c0-0.2-0.07-0.44-0.19-0.711c-0.12-0.27-0.3-0.51-0.52-0.71c-0.23-0.21-0.49-0.31-0.8-0.31c-0.28,0-0.601,0.09-0.921,0.28
		c-0.329,0.189-0.72,0.399-1.17,0.609c-0.449,0.221-1.01,0.32-1.68,0.32c-1.07,0-1.94-0.28-2.6-0.85c-0.67-0.561-1-1.301-1-2.221
		V38.86h6.239c0.46,0,0.92-0.04,1.36-0.13s0.81-0.311,1.09-0.67c0.29-0.37,0.44-0.971,0.44-1.811c0-1.1-0.311-2.05-0.9-2.87
		c-0.59-0.83-1.37-1.47-2.32-1.939c-0.949-0.46-2-0.7-3.14-0.7c-1.25,0-2.39,0.28-3.399,0.82c-1.021,0.56-1.83,1.29-2.431,2.199
		c-0.609,0.91-0.899,1.91-0.899,2.99v2.55c0,1.221,0.31,2.301,0.949,3.23c0.631,0.93,1.5,1.66,2.62,2.16
		c1.12,0.51,2.4,0.76,3.86,0.76C119.42,45.45,120.38,45.32,121.19,45.04z"/>
	<path fill="#232323" d="M128.16,45.07c0.24-0.26,0.37-0.55,0.37-0.88c0-0.351-0.13-0.65-0.37-0.9c-0.25-0.25-0.54-0.37-0.86-0.37
		c-0.359,0-0.67,0.12-0.909,0.37c-0.24,0.25-0.351,0.55-0.351,0.9c0,0.33,0.11,0.62,0.351,0.88c0.239,0.26,0.55,0.38,0.909,0.38
		C127.62,45.45,127.91,45.33,128.16,45.07z"/>
	<path fill="#232323" d="M133.19,45.26c0.149-0.13,0.22-0.279,0.22-0.439v-8.43c0-0.87,0.19-1.62,0.58-2.25
		c0.39-0.631,0.88-1.11,1.49-1.45c0.6-0.33,1.229-0.51,1.89-0.51c0.75,0,1.44,0.21,2.061,0.619c0.6,0.41,1.1,0.931,1.479,1.561
		c0.39,0.64,0.58,1.32,0.58,2.03v8.42c0,0.21,0.08,0.37,0.24,0.479c0.16,0.11,0.33,0.16,0.5,0.16c0.2,0,0.37-0.05,0.529-0.16
		c0.15-0.109,0.23-0.28,0.23-0.49v-8.42c0-1.05-0.25-1.989-0.75-2.85s-1.17-1.53-2-2.04c-0.83-0.5-1.75-0.75-2.75-0.75
		c-1.01,0-1.85,0.26-2.54,0.78c-0.68,0.529-1.2,1.109-1.54,1.76v-11c0-0.22-0.07-0.38-0.22-0.5c-0.141-0.11-0.32-0.18-0.55-0.18
		c-0.21,0-0.381,0.069-0.53,0.18c-0.14,0.11-0.21,0.28-0.21,0.479V44.8c0,0.17,0.07,0.32,0.21,0.46c0.149,0.131,0.32,0.19,0.53,0.19
		C132.87,45.45,133.05,45.39,133.19,45.26z"/>
	<path fill="#232323" d="M148.01,45.26c0.141-0.13,0.221-0.279,0.221-0.439v-8.15c0-0.939,0.2-1.75,0.6-2.41
		c0.4-0.67,0.92-1.17,1.561-1.54c0.64-0.359,1.31-0.539,2.01-0.539h1.109c0.181,0,0.33-0.061,0.461-0.2
		c0.119-0.13,0.18-0.311,0.18-0.521s-0.061-0.38-0.18-0.52c-0.131-0.13-0.28-0.2-0.461-0.2H152.4c-0.7,0-1.32,0.13-1.86,0.37
		c-0.55,0.25-1.01,0.56-1.39,0.95c-0.4,0.39-0.72,0.8-0.96,1.25V31.46c0-0.21-0.07-0.39-0.2-0.52s-0.31-0.2-0.53-0.2
		c-0.21,0-0.39,0.07-0.529,0.2c-0.141,0.14-0.21,0.31-0.21,0.529V44.8c0,0.17,0.069,0.32,0.21,0.46
		c0.14,0.131,0.319,0.19,0.529,0.19C147.68,45.45,147.87,45.39,148.01,45.26z"/>
</g>
<g>
	<path fill="#DF0090" d="M20.47,10.23L16.62,3.18L6.97,0L0,6.469l6.79,9.45l10.141,0.3L20.47,10.23z M17.9,9.83l-2.3,3.561
		L9.47,12.63L5.55,7.18l3.54-3.75L15.14,5.26L17.9,9.83z"/>
	<path fill="#00CAFF" d="M29.25,17.05l-2.24-5.239l-5.159-0.87l-2.94,5.729l3.26,5.88l5.051-0.489L29.25,17.05z M27.75,17.04
		l-1.26,3.01l-3.14,0.011L21.38,16.54l1.601-3.28l3.2,0.511L27.75,17.04z"/>
	<path fill="#8DE45A" d="M20.92,23.93L17.14,18.26L7.67,18.56L0.85,27.53L7.5,34.54l9.94-3.34L20.92,23.93z M18.4,24.45l-2.271,4.4
		l-6.01,1.439l-3.84-4.05l3.47-5.01l5.931-0.36L18.4,24.45z"/>
</g>
</svg>
