<?xml version="1.0" encoding="utf-8"?>
<!-- Generator: Adobe Illustrator 16.0.0, SVG Export Plug-In . SVG Version: 6.00 Build 0)  -->
<!DOCTYPE svg PUBLIC "-//W3C//DTD SVG 1.1//EN" "http://www.w3.org/Graphics/SVG/1.1/DTD/svg11.dtd">
<svg version="1.1" id="Layer_1" xmlns="http://www.w3.org/2000/svg" xmlns:xlink="http://www.w3.org/1999/xlink" x="0px" y="0px"
	 width="123.979px" height="52.561px" viewBox="0 0 123.979 52.561" enable-background="new 0 0 123.979 52.561"
	 xml:space="preserve">
<g>
	<path fill="#232323" d="M34.93,45.281c0.34-0.12,0.56-0.29,0.67-0.521l5.29-11.84c0.028-0.08,0.06-0.16,0.08-0.239
		c0.02-0.08,0.038-0.171,0.038-0.271c0-0.29-0.17-0.57-0.5-0.83c-0.328-0.25-0.698-0.46-1.118-0.61
		c-0.42-0.149-0.762-0.229-1.021-0.229c-0.28,0-0.51,0.05-0.72,0.17c-0.2,0.109-0.34,0.3-0.42,0.55L33.82,40.1l-3.44-8.7
		c-0.09-0.239-0.238-0.409-0.448-0.51s-0.44-0.149-0.69-0.149c-0.35,0-0.729,0.079-1.14,0.229c-0.41,0.15-0.762,0.351-1.052,0.591
		c-0.31,0.26-0.449,0.53-0.449,0.82c0,0.09,0.01,0.181,0.05,0.29c0.03,0.11,0.06,0.189,0.1,0.25l5.26,11.84
		c0.092,0.23,0.32,0.4,0.672,0.521c0.35,0.119,0.729,0.17,1.14,0.17C34.21,45.45,34.57,45.4,34.93,45.281z"/>
	<path fill="#232323" d="M46.33,27.58c0.41-0.42,0.62-0.88,0.62-1.41c0-0.55-0.21-1.04-0.62-1.43c-0.41-0.4-0.92-0.601-1.53-0.601
		c-0.6,0-1.108,0.199-1.55,0.601c-0.43,0.39-0.64,0.88-0.64,1.43c0,0.53,0.21,0.99,0.64,1.41C43.69,28,44.2,28.2,44.8,28.2
		C45.41,28.2,45.92,28,46.33,27.58z M44.72,51.8c0.688-0.5,1.198-1.199,1.55-2.1c0.34-0.9,0.52-1.92,0.52-3.061V31.99
		c0-0.37-0.2-0.671-0.58-0.9c-0.398-0.229-0.88-0.35-1.438-0.35c-0.562,0-1.021,0.13-1.392,0.399c-0.37,0.271-0.55,0.619-0.55,1.05
		v14.36c0,0.471-0.03,0.891-0.08,1.271c-0.05,0.381-0.16,0.671-0.34,0.881c-0.17,0.199-0.438,0.31-0.81,0.31
		c-0.4,0-0.75,0.15-1.062,0.49c-0.29,0.311-0.45,0.76-0.45,1.33c0,0.43,0.15,0.819,0.42,1.189c0.28,0.359,0.82,0.54,1.65,0.54
		C43.18,52.56,44.03,52.3,44.72,51.8z"/>
	<path fill="#232323" d="M53.41,35.65c0-0.38,0.12-0.71,0.38-0.989c0.26-0.28,0.58-0.5,1-0.65c0.41-0.149,0.852-0.229,1.32-0.229
		c0.49,0,0.938,0.079,1.35,0.239s0.74,0.391,0.99,0.67c0.24,0.29,0.36,0.62,0.36,0.979c0,0.261-0.07,0.439-0.2,0.521
		c-0.13,0.091-0.37,0.13-0.72,0.13h-4.48V35.65z M59.75,45.04c0.812-0.271,1.432-0.601,1.87-1c0.44-0.391,0.67-0.76,0.67-1.109
		c0-0.2-0.068-0.439-0.188-0.711c-0.13-0.27-0.302-0.51-0.53-0.71c-0.22-0.21-0.48-0.31-0.79-0.31c-0.29,0-0.6,0.09-0.93,0.279
		c-0.32,0.189-0.722,0.399-1.16,0.609c-0.45,0.221-1.01,0.32-1.682,0.32c-1.078,0-1.938-0.28-2.6-0.851c-0.68-0.561-1-1.301-1-2.221
		V38.86h6.24c0.46,0,0.92-0.04,1.358-0.13c0.44-0.09,0.802-0.311,1.092-0.67c0.29-0.37,0.43-0.971,0.43-1.811
		c0-1.101-0.3-2.05-0.89-2.87c-0.592-0.83-1.37-1.47-2.32-1.939c-0.95-0.46-2-0.699-3.15-0.699c-1.238,0-2.38,0.279-3.398,0.819
		c-1.012,0.561-1.82,1.29-2.42,2.199c-0.61,0.91-0.9,1.91-0.9,2.99v2.55c0,1.221,0.311,2.301,0.95,3.229
		c0.63,0.931,1.5,1.66,2.62,2.16c1.12,0.511,2.398,0.761,3.858,0.761C57.98,45.45,58.94,45.32,59.75,45.04z"/>
	<path fill="#232323" d="M70.37,28.02L73.53,26c0.25-0.149,0.41-0.311,0.51-0.51c0.09-0.19,0.142-0.41,0.142-0.66
		c0-0.28-0.08-0.55-0.24-0.811c-0.16-0.25-0.36-0.391-0.62-0.391c-0.11,0-0.23,0.051-0.38,0.13l-3.12,2.061l-3.17-2.061
		c-0.13-0.079-0.25-0.13-0.37-0.13c-0.25,0-0.46,0.141-0.62,0.391c-0.16,0.261-0.24,0.529-0.24,0.811c0,0.25,0.062,0.47,0.17,0.66
		c0.11,0.199,0.28,0.359,0.5,0.51l3.171,2.021c0.199,0.13,0.391,0.181,0.561,0.181C69.96,28.2,70.14,28.15,70.37,28.02z M73.8,44.26
		c0.98-0.79,1.46-1.829,1.46-3.149c0-0.891-0.17-1.601-0.52-2.141c-0.36-0.539-0.81-0.97-1.37-1.3c-0.56-0.33-1.148-0.569-1.78-0.75
		c-0.618-0.16-1.22-0.311-1.778-0.46c-0.562-0.13-1.021-0.3-1.37-0.5c-0.352-0.189-0.521-0.47-0.521-0.84
		c0-0.21,0.07-0.42,0.222-0.62c0.14-0.189,0.358-0.359,0.67-0.5c0.3-0.149,0.72-0.22,1.229-0.22c0.57,0,1.062,0.069,1.47,0.21
		c0.41,0.14,0.771,0.279,1.092,0.43c0.318,0.149,0.59,0.221,0.818,0.221c0.302,0,0.562-0.109,0.78-0.341
		c0.22-0.229,0.38-0.489,0.51-0.77c0.12-0.28,0.19-0.511,0.19-0.681c0-0.391-0.24-0.75-0.72-1.069c-0.472-0.32-1.08-0.57-1.82-0.761
		c-0.75-0.189-1.54-0.279-2.38-0.279c-1.38,0-2.46,0.229-3.26,0.67C65.92,31.86,65.34,32.42,65,33.09
		c-0.35,0.681-0.52,1.38-0.52,2.091c0,0.811,0.17,1.47,0.52,1.97c0.34,0.511,0.79,0.91,1.352,1.2c0.55,0.29,1.148,0.521,1.77,0.681
		c0.62,0.18,1.21,0.329,1.76,0.489c0.552,0.16,1.012,0.359,1.37,0.601c0.36,0.239,0.54,0.58,0.54,1.01c0,0.301-0.148,0.59-0.45,0.87
		c-0.3,0.271-0.908,0.41-1.818,0.41c-0.86,0-1.54-0.101-2.021-0.33c-0.479-0.21-0.88-0.431-1.2-0.649
		c-0.32-0.231-0.61-0.342-0.9-0.342c-0.271,0-0.51,0.101-0.7,0.29c-0.188,0.2-0.34,0.431-0.45,0.689
		c-0.12,0.271-0.17,0.5-0.17,0.689c0,0.44,0.24,0.87,0.72,1.28c0.48,0.42,1.142,0.76,1.99,1.029c0.852,0.261,1.79,0.381,2.82,0.381
		C71.43,45.45,72.82,45.06,73.8,44.26z"/>
	<path fill="#232323" d="M84.46,44.95c0.58,0,1-0.19,1.28-0.561c0.28-0.359,0.42-0.78,0.42-1.24c0-0.42-0.14-0.83-0.42-1.199
		c-0.28-0.37-0.7-0.561-1.28-0.561H83.27c-0.642,0-1.08-0.11-1.33-0.351c-0.26-0.24-0.392-0.641-0.392-1.229v-6.53h3.632
		c0.318,0,0.568-0.149,0.75-0.47c0.17-0.311,0.26-0.66,0.26-1.061c0-0.391-0.09-0.729-0.26-1.05
		c-0.182-0.311-0.432-0.471-0.75-0.471H81.55V25.09c0-0.359-0.21-0.649-0.63-0.87c-0.42-0.22-0.88-0.33-1.37-0.33
		c-0.448,0-0.89,0.109-1.318,0.329C77.8,24.44,77.58,24.74,77.58,25.1v14.88c0,1.721,0.48,2.979,1.46,3.771
		c0.98,0.8,2.38,1.2,4.23,1.2H84.46z"/>
	<path fill="#232323" d="M91.89,27.07c0.408-0.409,0.63-0.88,0.63-1.409c0-0.551-0.222-1.03-0.63-1.431
		c-0.432-0.399-0.932-0.601-1.521-0.601c-0.6,0-1.11,0.2-1.55,0.601c-0.43,0.399-0.64,0.88-0.64,1.431c0,0.529,0.21,1,0.64,1.409
		c0.438,0.421,0.95,0.62,1.55,0.62C90.96,27.69,91.46,27.49,91.89,27.07z M91.78,45.06c0.38-0.261,0.58-0.551,0.58-0.859V31.98
		c0-0.37-0.2-0.67-0.58-0.899c-0.4-0.221-0.87-0.34-1.41-0.34c-0.58,0-1.05,0.13-1.42,0.359c-0.37,0.25-0.55,0.569-0.55,0.97v12.12
		c0,0.311,0.18,0.601,0.55,0.87c0.37,0.271,0.84,0.391,1.42,0.391C90.91,45.45,91.38,45.33,91.78,45.06z"/>
	<path fill="#232323" d="M98.94,45.07c0.39-0.271,0.59-0.55,0.59-0.851v-7.188c0-0.57,0.12-1.062,0.37-1.461
		c0.24-0.409,0.56-0.72,0.95-0.949c0.38-0.221,0.778-0.33,1.198-0.33c0.49,0,0.932,0.141,1.352,0.41
		c0.41,0.27,0.729,0.609,0.97,1.02c0.23,0.4,0.352,0.841,0.352,1.301v7.189c0,0.41,0.22,0.721,0.648,0.931s0.87,0.311,1.32,0.311
		c0.51,0,0.97-0.101,1.38-0.311c0.41-0.221,0.62-0.53,0.62-0.939v-7.25c0-1.15-0.25-2.181-0.73-3.12
		c-0.479-0.931-1.12-1.689-1.92-2.25s-1.68-0.84-2.64-0.84c-1.021,0-1.9,0.25-2.602,0.76c-0.698,0.51-1.21,1.08-1.51,1.7v-1.061
		c0-0.421-0.18-0.761-0.51-1.011c-0.34-0.26-0.76-0.39-1.24-0.39c-0.58,0-1.05,0.13-1.42,0.359c-0.37,0.25-0.55,0.569-0.55,0.97
		v12.12c0,0.311,0.18,0.601,0.55,0.87c0.37,0.271,0.84,0.391,1.42,0.391C98.08,45.45,98.55,45.33,98.94,45.07z"/>
	<path fill="#232323" d="M114.85,35.65c0-0.38,0.13-0.71,0.38-0.989c0.26-0.28,0.59-0.5,1-0.65c0.41-0.149,0.85-0.229,1.318-0.229
		c0.49,0,0.94,0.079,1.352,0.239s0.74,0.391,0.99,0.67c0.238,0.29,0.368,0.62,0.368,0.979c0,0.261-0.078,0.439-0.198,0.521
		c-0.142,0.091-0.38,0.13-0.722,0.13h-4.488V35.65z M121.19,45.04c0.81-0.271,1.43-0.601,1.87-1c0.438-0.391,0.67-0.76,0.67-1.109
		c0-0.2-0.07-0.439-0.19-0.711c-0.12-0.27-0.3-0.51-0.52-0.71c-0.23-0.21-0.49-0.31-0.8-0.31c-0.28,0-0.602,0.09-0.922,0.279
		c-0.328,0.189-0.72,0.399-1.17,0.609c-0.448,0.221-1.01,0.32-1.68,0.32c-1.07,0-1.94-0.28-2.6-0.851c-0.67-0.561-1-1.301-1-2.221
		V38.86h6.238c0.46,0,0.92-0.04,1.36-0.13s0.81-0.311,1.09-0.67c0.29-0.37,0.44-0.971,0.44-1.811c0-1.101-0.312-2.05-0.9-2.87
		c-0.59-0.83-1.37-1.47-2.32-1.939c-0.948-0.46-2-0.699-3.14-0.699c-1.25,0-2.39,0.279-3.398,0.819
		c-1.021,0.561-1.83,1.29-2.432,2.199c-0.608,0.91-0.898,1.91-0.898,2.99v2.55c0,1.221,0.31,2.301,0.948,3.229
		c0.631,0.931,1.5,1.66,2.62,2.16c1.12,0.511,2.4,0.761,3.86,0.761C119.42,45.45,120.38,45.32,121.19,45.04z"/>
</g>
<g>
	<path fill="#DF0090" d="M20.47,10.23L16.62,3.18L6.97,0L0,6.469l6.79,9.45l10.142,0.3L20.47,10.23z M17.9,9.83l-2.3,3.561
		L9.47,12.63L5.55,7.18l3.54-3.75l6.051,1.83L17.9,9.83z"/>
	<path fill="#00CAFF" d="M29.25,17.05l-2.24-5.239l-5.158-0.87l-2.94,5.729l3.26,5.88l5.052-0.489L29.25,17.05z M27.75,17.04
		l-1.26,3.01l-3.14,0.011L21.38,16.54l1.602-3.28l3.2,0.511L27.75,17.04z"/>
	<path fill="#8DE45A" d="M20.92,23.93l-3.779-5.67l-9.471,0.3L0.85,27.531L7.5,34.54l9.94-3.34L20.92,23.93z M18.4,24.45
		l-2.271,4.399l-6.01,1.439l-3.84-4.05l3.47-5.011l5.932-0.359L18.4,24.45z"/>
</g>
</svg>
