<?xml version="1.0" encoding="utf-8"?>
<!-- Generator: Adobe Illustrator 16.0.0, SVG Export Plug-In . SVG Version: 6.00 Build 0)  -->
<!DOCTYPE svg PUBLIC "-//W3C//DTD SVG 1.1//EN" "http://www.w3.org/Graphics/SVG/1.1/DTD/svg11.dtd">
<svg version="1.1" id="Layer_1" xmlns="http://www.w3.org/2000/svg" xmlns:xlink="http://www.w3.org/1999/xlink" x="0px" y="0px"
	 width="154.15px" height="52.56px" viewBox="0 0 154.15 52.56" enable-background="new 0 0 154.15 52.56" xml:space="preserve">
<g>
	<path fill-rule="evenodd" clip-rule="evenodd" fill="#FFFFFF" d="M34.93,45.28c0.34-0.12,0.56-0.29,0.67-0.52l5.29-11.84
		c0.03-0.08,0.06-0.16,0.08-0.24s0.04-0.17,0.04-0.27c0-0.29-0.17-0.57-0.5-0.83c-0.33-0.25-0.7-0.46-1.12-0.61
		s-0.76-0.23-1.02-0.23c-0.28,0-0.51,0.05-0.72,0.17c-0.2,0.11-0.34,0.3-0.42,0.55l-3.41,8.64l-3.44-8.7
		c-0.09-0.24-0.24-0.41-0.45-0.51s-0.44-0.15-0.69-0.15c-0.35,0-0.73,0.08-1.14,0.23c-0.41,0.15-0.76,0.35-1.05,0.59
		c-0.31,0.26-0.45,0.53-0.45,0.82c0,0.09,0.01,0.18,0.05,0.29c0.03,0.11,0.06,0.19,0.1,0.25l5.26,11.84
		c0.09,0.23,0.32,0.4,0.67,0.52c0.35,0.12,0.73,0.17,1.14,0.17C34.21,45.45,34.57,45.4,34.93,45.28z"/>
	<path fill-rule="evenodd" clip-rule="evenodd" fill="#FFFFFF" d="M46.33,27.58c0.41-0.42,0.62-0.88,0.62-1.41
		c0-0.55-0.21-1.04-0.62-1.43c-0.41-0.4-0.92-0.6-1.53-0.6c-0.6,0-1.11,0.2-1.55,0.6c-0.43,0.39-0.64,0.88-0.64,1.43
		c0,0.53,0.21,0.99,0.64,1.41C43.69,28,44.2,28.2,44.8,28.2C45.41,28.2,45.92,28,46.33,27.58z M44.72,51.8
		c0.69-0.5,1.2-1.2,1.55-2.1c0.34-0.9,0.52-1.92,0.52-3.06V31.99c0-0.37-0.2-0.67-0.58-0.9c-0.4-0.23-0.88-0.35-1.44-0.35
		s-1.02,0.13-1.39,0.4s-0.55,0.62-0.55,1.05v14.36c0,0.47-0.03,0.89-0.08,1.27c-0.05,0.38-0.16,0.67-0.34,0.88
		c-0.17,0.2-0.44,0.31-0.81,0.31c-0.4,0-0.75,0.15-1.06,0.49c-0.29,0.31-0.45,0.76-0.45,1.33c0,0.43,0.15,0.82,0.42,1.19
		c0.28,0.36,0.82,0.54,1.65,0.54C43.18,52.56,44.03,52.3,44.72,51.8z"/>
	<path fill-rule="evenodd" clip-rule="evenodd" fill="#FFFFFF" d="M53.41,35.65c0-0.38,0.12-0.71,0.38-0.99
		c0.26-0.28,0.58-0.5,1-0.65c0.41-0.15,0.85-0.23,1.32-0.23c0.49,0,0.94,0.08,1.35,0.24s0.74,0.39,0.99,0.67
		c0.24,0.29,0.36,0.62,0.36,0.98c0,0.26-0.07,0.44-0.2,0.52c-0.13,0.09-0.37,0.13-0.72,0.13h-4.48V35.65z M59.75,45.04
		c0.81-0.27,1.43-0.6,1.87-1c0.44-0.39,0.67-0.76,0.67-1.11c0-0.2-0.07-0.44-0.19-0.71c-0.13-0.27-0.3-0.51-0.53-0.71
		c-0.22-0.21-0.48-0.31-0.79-0.31c-0.29,0-0.6,0.09-0.93,0.28c-0.32,0.19-0.72,0.4-1.16,0.61c-0.45,0.22-1.01,0.32-1.68,0.32
		c-1.08,0-1.94-0.28-2.6-0.85c-0.68-0.56-1-1.3-1-2.22v-0.48h6.24c0.46,0,0.92-0.04,1.36-0.13c0.44-0.09,0.8-0.31,1.09-0.67
		c0.29-0.37,0.43-0.97,0.43-1.81c0-1.1-0.3-2.05-0.89-2.87c-0.59-0.83-1.37-1.47-2.32-1.94c-0.95-0.46-2-0.7-3.15-0.7
		c-1.24,0-2.38,0.28-3.4,0.82c-1.01,0.56-1.82,1.29-2.42,2.2c-0.61,0.91-0.9,1.91-0.9,2.99v2.55c0,1.22,0.31,2.3,0.95,3.23
		c0.63,0.93,1.5,1.66,2.62,2.16c1.12,0.51,2.4,0.76,3.86,0.76C57.98,45.45,58.94,45.32,59.75,45.04z"/>
	<path fill-rule="evenodd" clip-rule="evenodd" fill="#FFFFFF" d="M70.37,28.02L73.53,26c0.25-0.15,0.41-0.31,0.51-0.51
		c0.09-0.19,0.14-0.41,0.14-0.66c0-0.28-0.08-0.55-0.24-0.81c-0.16-0.25-0.36-0.39-0.62-0.39c-0.11,0-0.23,0.05-0.38,0.13
		l-3.12,2.06l-3.17-2.06c-0.13-0.08-0.25-0.13-0.37-0.13c-0.25,0-0.46,0.14-0.62,0.39c-0.16,0.26-0.24,0.53-0.24,0.81
		c0,0.25,0.06,0.47,0.17,0.66c0.11,0.2,0.28,0.36,0.5,0.51l3.17,2.02c0.2,0.13,0.39,0.18,0.56,0.18
		C69.96,28.2,70.14,28.15,70.37,28.02z M73.8,44.26c0.98-0.79,1.46-1.83,1.46-3.15c0-0.89-0.17-1.6-0.52-2.14
		c-0.36-0.54-0.81-0.97-1.37-1.3s-1.15-0.57-1.78-0.75c-0.62-0.16-1.22-0.31-1.78-0.46c-0.56-0.13-1.02-0.3-1.37-0.5
		c-0.35-0.19-0.52-0.47-0.52-0.84c0-0.21,0.07-0.42,0.22-0.62c0.14-0.19,0.36-0.36,0.67-0.5c0.3-0.15,0.72-0.22,1.23-0.22
		c0.57,0,1.06,0.07,1.47,0.21c0.41,0.14,0.77,0.28,1.09,0.43c0.32,0.15,0.59,0.22,0.82,0.22c0.3,0,0.56-0.11,0.78-0.34
		c0.22-0.23,0.38-0.49,0.51-0.77c0.12-0.28,0.19-0.51,0.19-0.68c0-0.39-0.24-0.75-0.72-1.07c-0.47-0.32-1.08-0.57-1.82-0.76
		c-0.75-0.19-1.54-0.28-2.38-0.28c-1.38,0-2.46,0.23-3.26,0.67c-0.8,0.45-1.38,1.01-1.72,1.68c-0.35,0.68-0.52,1.38-0.52,2.09
		c0,0.81,0.17,1.47,0.52,1.97c0.34,0.51,0.79,0.91,1.35,1.2c0.55,0.29,1.15,0.52,1.77,0.68c0.62,0.18,1.21,0.33,1.76,0.49
		c0.55,0.16,1.01,0.36,1.37,0.6c0.36,0.24,0.54,0.58,0.54,1.01c0,0.3-0.15,0.59-0.45,0.87c-0.3,0.27-0.91,0.41-1.82,0.41
		c-0.86,0-1.54-0.1-2.02-0.33c-0.48-0.21-0.88-0.43-1.2-0.65c-0.32-0.23-0.61-0.34-0.9-0.34c-0.27,0-0.51,0.1-0.7,0.29
		c-0.19,0.2-0.34,0.43-0.45,0.69c-0.12,0.27-0.17,0.5-0.17,0.69c0,0.44,0.24,0.87,0.72,1.28c0.48,0.42,1.14,0.76,1.99,1.03
		c0.85,0.26,1.79,0.38,2.82,0.38C71.43,45.45,72.82,45.06,73.8,44.26z"/>
	<path fill-rule="evenodd" clip-rule="evenodd" fill="#FFFFFF" d="M84.46,44.95c0.58,0,1-0.19,1.28-0.56
		c0.28-0.36,0.42-0.78,0.42-1.24c0-0.42-0.14-0.83-0.42-1.2c-0.28-0.37-0.7-0.56-1.28-0.56h-1.19c-0.64,0-1.08-0.11-1.33-0.35
		c-0.26-0.24-0.39-0.64-0.39-1.23v-6.53h3.63c0.32,0,0.57-0.15,0.75-0.47c0.17-0.31,0.26-0.66,0.26-1.06c0-0.39-0.09-0.73-0.26-1.05
		c-0.18-0.31-0.43-0.47-0.75-0.47h-3.63v-5.14c0-0.36-0.21-0.65-0.63-0.87c-0.42-0.22-0.88-0.33-1.37-0.33
		c-0.45,0-0.89,0.11-1.32,0.33c-0.43,0.22-0.65,0.52-0.65,0.88v14.88c0,1.72,0.48,2.98,1.46,3.77c0.98,0.8,2.38,1.2,4.23,1.2H84.46z
		"/>
	<path fill-rule="evenodd" clip-rule="evenodd" fill="#FFFFFF" d="M91.89,27.07c0.41-0.41,0.63-0.88,0.63-1.41
		c0-0.55-0.22-1.03-0.63-1.43c-0.43-0.4-0.93-0.6-1.52-0.6c-0.6,0-1.11,0.2-1.55,0.6c-0.43,0.4-0.64,0.88-0.64,1.43
		c0,0.53,0.21,1,0.64,1.41c0.44,0.42,0.95,0.62,1.55,0.62C90.96,27.69,91.46,27.49,91.89,27.07z M91.78,45.06
		c0.38-0.26,0.58-0.55,0.58-0.86V31.98c0-0.37-0.2-0.67-0.58-0.9c-0.4-0.22-0.87-0.34-1.41-0.34c-0.58,0-1.05,0.13-1.42,0.36
		c-0.37,0.25-0.55,0.57-0.55,0.97v12.12c0,0.31,0.18,0.6,0.55,0.87c0.37,0.27,0.84,0.39,1.42,0.39
		C90.91,45.45,91.38,45.33,91.78,45.06z"/>
	<path fill-rule="evenodd" clip-rule="evenodd" fill="#FFFFFF" d="M98.94,45.07c0.39-0.27,0.59-0.55,0.59-0.85v-7.19
		c0-0.57,0.12-1.06,0.37-1.46c0.24-0.41,0.56-0.72,0.95-0.95c0.38-0.22,0.78-0.33,1.2-0.33c0.49,0,0.93,0.14,1.35,0.41
		c0.41,0.27,0.73,0.61,0.97,1.02c0.23,0.4,0.35,0.84,0.35,1.3v7.19c0,0.41,0.22,0.72,0.65,0.93c0.43,0.21,0.87,0.31,1.32,0.31
		c0.51,0,0.97-0.1,1.38-0.31c0.41-0.22,0.62-0.53,0.62-0.94v-7.25c0-1.15-0.25-2.18-0.73-3.12c-0.48-0.93-1.12-1.69-1.92-2.25
		s-1.68-0.84-2.64-0.84c-1.02,0-1.9,0.25-2.6,0.76c-0.7,0.51-1.21,1.08-1.51,1.7v-1.06c0-0.42-0.18-0.76-0.51-1.01
		c-0.34-0.26-0.76-0.39-1.24-0.39c-0.58,0-1.05,0.13-1.42,0.36c-0.37,0.25-0.55,0.57-0.55,0.97v12.12c0,0.31,0.18,0.6,0.55,0.87
		s0.84,0.39,1.42,0.39C98.08,45.45,98.55,45.33,98.94,45.07z"/>
	<path fill-rule="evenodd" clip-rule="evenodd" fill="#FFFFFF" d="M114.85,35.65c0-0.38,0.13-0.71,0.38-0.99
		c0.26-0.28,0.59-0.5,1-0.65c0.41-0.15,0.85-0.23,1.32-0.23c0.49,0,0.94,0.08,1.35,0.24c0.41,0.16,0.74,0.39,0.99,0.67
		c0.24,0.29,0.37,0.62,0.37,0.98c0,0.26-0.08,0.44-0.2,0.52c-0.14,0.09-0.38,0.13-0.72,0.13h-4.49V35.65z M121.19,45.04
		c0.81-0.27,1.43-0.6,1.87-1c0.44-0.39,0.67-0.76,0.67-1.11c0-0.2-0.07-0.44-0.19-0.71s-0.3-0.51-0.52-0.71
		c-0.23-0.21-0.49-0.31-0.8-0.31c-0.28,0-0.6,0.09-0.92,0.28c-0.33,0.19-0.72,0.4-1.17,0.61c-0.45,0.22-1.01,0.32-1.68,0.32
		c-1.07,0-1.94-0.28-2.6-0.85c-0.67-0.56-1-1.3-1-2.22v-0.48h6.24c0.46,0,0.92-0.04,1.36-0.13c0.44-0.09,0.81-0.31,1.09-0.67
		c0.29-0.37,0.44-0.97,0.44-1.81c0-1.1-0.31-2.05-0.9-2.87c-0.59-0.83-1.37-1.47-2.32-1.94c-0.95-0.46-2-0.7-3.14-0.7
		c-1.25,0-2.39,0.28-3.4,0.82c-1.02,0.56-1.83,1.29-2.43,2.2c-0.61,0.91-0.9,1.91-0.9,2.99v2.55c0,1.22,0.31,2.3,0.95,3.23
		c0.63,0.93,1.5,1.66,2.62,2.16c1.12,0.51,2.4,0.76,3.86,0.76C119.42,45.45,120.38,45.32,121.19,45.04z"/>
	<path fill-rule="evenodd" clip-rule="evenodd" fill="#FFFFFF" d="M128.16,45.07c0.24-0.26,0.37-0.55,0.37-0.88
		c0-0.35-0.13-0.65-0.37-0.9c-0.25-0.25-0.54-0.37-0.86-0.37c-0.36,0-0.67,0.12-0.91,0.37c-0.24,0.25-0.35,0.55-0.35,0.9
		c0,0.33,0.11,0.62,0.35,0.88c0.24,0.26,0.55,0.38,0.91,0.38C127.62,45.45,127.91,45.33,128.16,45.07z"/>
	<path fill-rule="evenodd" clip-rule="evenodd" fill="#FFFFFF" d="M133.19,45.26c0.15-0.13,0.22-0.28,0.22-0.44v-8.43
		c0-0.87,0.19-1.62,0.58-2.25c0.39-0.63,0.88-1.11,1.49-1.45c0.6-0.33,1.23-0.51,1.89-0.51c0.75,0,1.44,0.21,2.06,0.62
		c0.6,0.41,1.1,0.93,1.48,1.56c0.39,0.64,0.58,1.32,0.58,2.03v8.42c0,0.21,0.08,0.37,0.24,0.48s0.33,0.16,0.5,0.16
		c0.2,0,0.37-0.05,0.53-0.16c0.15-0.11,0.23-0.28,0.23-0.49v-8.42c0-1.05-0.25-1.99-0.75-2.85c-0.5-0.86-1.17-1.53-2-2.04
		c-0.83-0.5-1.75-0.75-2.75-0.75c-1.01,0-1.85,0.26-2.54,0.78c-0.68,0.53-1.2,1.11-1.54,1.76v-11c0-0.22-0.07-0.38-0.22-0.5
		c-0.14-0.11-0.32-0.18-0.55-0.18c-0.21,0-0.38,0.07-0.53,0.18c-0.14,0.11-0.21,0.28-0.21,0.48V44.8c0,0.17,0.07,0.32,0.21,0.46
		c0.15,0.13,0.32,0.19,0.53,0.19C132.87,45.45,133.05,45.39,133.19,45.26z"/>
	<path fill-rule="evenodd" clip-rule="evenodd" fill="#FFFFFF" d="M148.01,45.26c0.14-0.13,0.22-0.28,0.22-0.44v-8.15
		c0-0.94,0.2-1.75,0.6-2.41c0.4-0.67,0.92-1.17,1.56-1.54c0.64-0.36,1.31-0.54,2.01-0.54h1.11c0.18,0,0.33-0.06,0.46-0.2
		c0.12-0.13,0.18-0.31,0.18-0.52s-0.06-0.38-0.18-0.52c-0.13-0.13-0.28-0.2-0.46-0.2h-1.11c-0.7,0-1.32,0.13-1.86,0.37
		c-0.55,0.25-1.01,0.56-1.39,0.95c-0.4,0.39-0.72,0.8-0.96,1.25v-1.85c0-0.21-0.07-0.39-0.2-0.52c-0.13-0.13-0.31-0.2-0.53-0.2
		c-0.21,0-0.39,0.07-0.53,0.2c-0.14,0.14-0.21,0.31-0.21,0.53V44.8c0,0.17,0.07,0.32,0.21,0.46c0.14,0.13,0.32,0.19,0.53,0.19
		C147.68,45.45,147.87,45.39,148.01,45.26z"/>
</g>
<g>
	<path fill-rule="evenodd" clip-rule="evenodd" fill="#DF0090" d="M20.47,10.23l-3.85-7.05L6.97,0L0,6.47l6.79,9.45l10.14,0.3
		L20.47,10.23z M17.9,9.83l-2.3,3.56l-6.13-0.76L5.55,7.18l3.54-3.75l6.05,1.83L17.9,9.83z"/>
	<path fill-rule="evenodd" clip-rule="evenodd" fill="#00CAFF" d="M29.25,17.05l-2.24-5.24l-5.16-0.87l-2.94,5.73l3.26,5.88
		l5.05-0.49L29.25,17.05z M27.75,17.04l-1.26,3.01l-3.14,0.01l-1.97-3.52l1.6-3.28l3.2,0.51L27.75,17.04z"/>
	<path fill-rule="evenodd" clip-rule="evenodd" fill="#8DE45A" d="M20.92,23.93l-3.78-5.67l-9.47,0.3l-6.82,8.97l6.65,7.01
		l9.94-3.34L20.92,23.93z M18.4,24.45l-2.27,4.4l-6.01,1.44l-3.84-4.05l3.47-5.01l5.93-0.36L18.4,24.45z"/>
</g>
</svg>
